<?xml version="1.0" encoding="UTF-8" standalone="no"?>
<svg width="128px" height="128px" viewBox="0 0 128 128" version="1.1" xmlns="http://www.w3.org/2000/svg" xmlns:xlink="http://www.w3.org/1999/xlink" xmlns:sketch="http://www.bohemiancoding.com/sketch/ns">
    <!-- Generator: Sketch 3.0.4 (8054) - http://www.bohemiancoding.com/sketch -->
    <title>bear</title>
    <desc>Created with Sketch.</desc>
    <defs></defs>
    <g id="Page-1" stroke="none" stroke-width="1" fill="none" fill-rule="evenodd" sketch:type="MSPage">
        <g id="bear" sketch:type="MSArtboardGroup" fill="#000000">
            <g sketch:type="MSLayerGroup" transform="translate(1.000000, 0.000000)">
                <path d="M7.24335567,23.7546296 C7.24335567,36.420526 14.8866895,42.0663621 21.4310721,45.0864198 C24.1076011,46.3215664 26.8701544,46.7160494 26.8701544,46.7160494 C27.0019841,48.242446 27.4934427,51.3052774 28.2042963,53.8460648 C28.9151498,56.3868522 29.5896955,57.5802469 29.5896955,57.5802469 C29.5896955,57.5802469 18.0825041,56.6099537 9.5391274,57.9160518 C3.26687581,58.8749438 -3.0301251,66.9402006 1.71400625,76.5725309 C6.45813761,86.2048611 34.0926436,80.8460648 45.9118312,83.6740693 C57.7310188,86.5020737 63.3120056,97.2345679 63.3120056,97.2345679 C63.3120056,97.2345679 71.4367677,86.0401235 83.9805183,83.654321 C96.5242688,81.2685185 122.314326,85.163966 125.46884,74.5405093 C128.623353,63.9170525 121.606761,58.9351852 115.392244,57.912037 C109.177728,56.8888889 107.261048,57.1265432 95.9464993,57.5802469 C95.9464993,57.5802469 96.2649206,56.5524613 97.4370921,53.9513882 C98.9788092,50.5302855 98.9207679,46.1337763 98.9207679,46.1337763 C98.9207679,46.1337763 100.632032,45.6994205 102.473398,45.0864198 C110.952356,42.2637291 117.765928,35.9064791 117.702828,23.7827148 C117.639729,11.6589506 110.411621,3.03109873 99.1373183,0.800003052 C87.8630155,-1.43109263 80.2036133,5.515625 75.8218949,8.14814815 C75.8218949,8.14814815 69.2919434,6.11214873 63.3120054,6.16280864 C57.178761,6.21476731 50.9947463,8.14814815 50.9947463,8.14814815 C47.2267912,6.16280864 41.535456,-0.325617284 29.0457873,0.543209877 C17.0508078,1.37762464 7.24335567,11.4591049 7.24335567,23.7546296 Z M17.5061468,23.376929 C18.113408,14.8074846 24.0606133,10.9769326 27.5808105,10.4760802 C35.1325591,9.40162037 39.3800436,14.1234568 39.3800436,14.1234568 C35.1074497,17.5796682 28.9537153,23.0231481 26.8701544,35.0617284 C26.8701544,35.0617284 16.8988856,31.9463735 17.5061468,23.376929 Z M51.3014674,64.1580223 C43.6176047,61.7021605 39.8900333,54.9094301 40.602159,46.617284 C41.2391651,39.1998457 48.3335363,33.2111063 55.3212891,31.7629606 C62.3090419,30.3148148 65.2310034,30.4320988 70.8980025,31.7584876 C76.5650016,33.0848765 84.3071942,38.7141203 85.2261982,46.6373463 C86.1452023,54.5605724 83.0938289,60.7384266 74.988901,64.1300161 C70.7948586,65.8368062 58.9853301,66.6138841 51.3014674,64.1580223 Z M106.986663,23.1990896 C106.394369,14.7165196 100.593746,10.9248005 97.1603124,10.4290257 C89.7946942,9.36545836 85.6518987,14.0394263 85.6518987,14.0394263 C89.8191847,17.4605997 95.8212461,22.8488953 97.8534528,34.7654321 C97.8534528,34.7654321 107.578957,31.6816597 106.986663,23.1990896 Z" id="Shape" sketch:type="MSShapeGroup"></path>
                <ellipse id="Oval-8" sketch:type="MSShapeGroup" cx="62.7088608" cy="43.4567901" rx="11.0759494" ry="11.0617284"></ellipse>
                <ellipse id="Oval-9" sketch:type="MSShapeGroup" cx="39.3702532" cy="108.641975" rx="19.3829114" ry="19.3580247"></ellipse>
                <ellipse id="Oval-10" sketch:type="MSShapeGroup" cx="88.4208861" cy="108.641975" rx="19.3829114" ry="19.3580247"></ellipse>
            </g>
        </g>
    </g>
</svg>