<?xml version="1.0" encoding="UTF-8" standalone="no"?>
<svg width="66px" height="65px" viewBox="0 0 66 65" version="1.1" xmlns="http://www.w3.org/2000/svg" xmlns:xlink="http://www.w3.org/1999/xlink" xmlns:sketch="http://www.bohemiancoding.com/sketch/ns">
    <!-- Generator: Sketch 3.1 (8751) - http://www.bohemiancoding.com/sketch -->
    <title>Shape</title>
    <desc>Created with Sketch.</desc>
    <defs></defs>
    <g id="Page-1" stroke="none" stroke-width="1" fill="none" fill-rule="evenodd" sketch:type="MSPage">
        <path d="M0.530000687,64.0410004 L65.4700012,64.0410004 L65.47,0.364 L0.529,0.364 L0.530000687,64.0410004 Z M60.154,61.002 L44.203,61.002 L44.203,49.039 L39.836,49.039 L39.836,61.003 L38.127,61.003 L38.127,49.039 L33.76,49.039 L33.76,61.003 L32.24,61.003 L32.24,49.039 L27.873,49.039 L27.873,61.003 L26.068,61.003 L26.068,49.039 L21.701,49.039 L21.701,61.003 L19.992,61.003 L19.992,49.039 L15.625,49.039 L15.625,61.003 L14.105,61.003 L14.105,49.039 L9.738,49.039 L9.738,61.003 L6.226,61.003 L6.226,43.658 L60.154,43.658 L60.154,61.002 L60.154,61.002 Z M60.154,40.621 L57.074,40.621 L57.988,40.413 L55.185,28.068 L50.927,29.035 L53.556,40.621 L50.927,40.621 L50.927,29.035 L50.927,28.394 L46.56,28.394 L46.56,40.621 L26.164,40.621 L26.164,28.34 L21.797,28.34 L21.797,40.62 L20.088,40.62 L20.088,28.34 L15.721,28.34 L15.721,40.62 L14.201,40.62 L14.201,28.34 L9.834,28.34 L9.834,40.62 L6.227,40.62 L6.227,24.417 L60.155,24.417 L60.155,40.621 L60.154,40.621 Z M60.154,21.378 L58.351,21.378 L58.351,8.719 L53.982,8.719 L53.982,21.378 L52.273,21.378 L52.273,8.719 L47.906,8.719 L47.906,21.378 L46.386,21.378 L46.386,8.719 L42.02,8.719 L42.02,21.378 L20.342,21.378 L23.162,20.737 L20.359,8.391 L16.1,9.36 L18.829,21.379 L16.1,21.379 L16.1,9.36 L16.1,8.719 L11.733,8.719 L11.733,21.378 L6.227,21.378 L6.227,3.402 L60.155,3.402 L60.155,21.378 L60.154,21.378 Z" id="Shape" fill="#000000" sketch:type="MSShapeGroup"></path>
    </g>
</svg>