<?xml version="1.0" encoding="UTF-8" standalone="no"?>
<svg width="26px" height="50px" viewBox="0 0 26 50" version="1.1" xmlns="http://www.w3.org/2000/svg" xmlns:xlink="http://www.w3.org/1999/xlink" xmlns:sketch="http://www.bohemiancoding.com/sketch/ns">
    <!-- Generator: Sketch 3.1 (8751) - http://www.bohemiancoding.com/sketch -->
    <title>cactus</title>
    <desc>Created with Sketch.</desc>
    <defs></defs>
    <g id="Page-1" stroke="none" stroke-width="1" fill="none" fill-rule="evenodd" sketch:type="MSPage">
        <g id="cactus" sketch:type="MSLayerGroup" fill="#000000">
            <path d="M25.65,20.8 C25.634,20.855 25.612,20.909 25.602,20.965 C25.485,21.636 25.137,22.165 24.614,22.59 C23.935,23.141 23.142,23.466 22.311,23.684 C20.817,24.077 19.313,24.434 17.813,24.808 C17.227,24.954 16.642,25.104 16.05,25.254 L16.05,25.55 C16.05,26.532 16.061,27.514 16.046,28.496 C16.026,29.867 15.161,31.042 13.868,31.481 C13.666,31.55 13.456,31.594 13.25,31.65 L12.45,31.65 C12.413,31.634 12.378,31.611 12.339,31.604 C10.772,31.338 9.658,30.034 9.649,28.441 C9.643,27.408 9.649,26.375 9.649,25.341 L9.649,22.062 C9.575,22.039 9.513,22.016 9.45,22 C8.651,21.799 7.851,21.603 7.054,21.399 C5.644,21.038 4.23,20.691 2.828,20.303 C2.092,20.099 1.431,19.722 0.87,19.192 C0.411,18.758 0.173,18.208 0.05,17.6 L0.05,10.45 C0.082,10.332 0.116,10.214 0.145,10.096 C0.51,8.595 1.866,7.588 3.431,7.655 C4.917,7.719 6.21,8.877 6.397,10.377 C6.475,11.001 6.443,11.639 6.449,12.271 C6.456,13.127 6.451,13.983 6.451,14.852 C7.521,15.119 8.575,15.381 9.651,15.65 L9.651,15.177 C9.651,13.195 9.641,5.214 9.655,3.232 C9.665,1.841 10.529,0.664 11.833,0.22 C12.035,0.151 12.245,0.107 12.451,0.051 L13.251,0.051 C14.742,0.262 16.079,1.561 16.06,3.431 C16.028,6.47 16.051,15.51 16.051,18.549 L16.051,18.849 C16.613,18.709 17.137,18.578 17.66,18.447 C18.189,18.314 18.718,18.181 19.249,18.048 C19.249,17.345 19.243,16.671 19.25,15.997 C19.259,15.19 19.219,14.377 19.306,13.578 C19.451,12.247 20.48,11.197 21.799,10.917 C23.097,10.641 24.476,11.213 25.15,12.365 C25.38,12.756 25.487,13.219 25.65,13.65 L25.65,20.8 L25.65,20.8 Z" id="Shape" sketch:type="MSShapeGroup"></path>
            <path d="M1.5016271,34.5974659 L24.5021854,34.5974659 C24.4185038,35.0726907 24.3445146,35.527065 24.2579663,35.9789204 C23.3937116,40.4906178 22.5269998,45.0018955 21.6621991,49.5135929 C21.5483485,50.1072041 21.2631758,50.3536326 20.6651187,50.3536326 C15.5537167,50.3543322 10.4423146,50.3543322 5.3309126,50.3534926 C4.7200234,50.3533527 4.4465908,50.1186789 4.3245495,49.4828068 C3.3936772,44.6379202 2.4645796,39.7927538 1.536301,34.9473075 C1.5169164,34.8457135 1.5154147,34.7404811 1.5016271,34.5974659 L1.5016271,34.5974659 L1.5016271,34.5974659 Z" id="Shape" sketch:type="MSShapeGroup"></path>
            <path d="M25.5585094,33.5811179 L0.4496667,33.5811179 C0.346737,32.7710246 0.2450358,31.9712867 0.1436078,31.1715488 C0.0992415,30.8224068 0.0500974,30.4738246 0.0125567,30.123983 C-0.0693503,29.3617481 0.2483121,29.0023908 0.9989891,29.0021109 C4.1158209,29.0009914 7.2326527,28.999872 10.3494844,29.0000119 C15.1966001,29.0002918 20.0437158,29.0012713 24.8908314,29.0035103 C25.0621534,29.0036502 25.2379803,28.9988924 25.4039783,29.0344363 C25.754267,29.1094423 26.0357538,29.4522871 25.996302,29.8372528 C25.8682541,31.082689 25.7078531,32.3246267 25.5585094,33.5811179 L25.5585094,33.5811179 L25.5585094,33.5811179 Z" id="Shape" sketch:type="MSShapeGroup"></path>
        </g>
    </g>
</svg>