<?xml version="1.0" encoding="UTF-8" standalone="no"?>
<svg width="129px" height="118px" viewBox="0 0 129 118" version="1.1" xmlns="http://www.w3.org/2000/svg" xmlns:xlink="http://www.w3.org/1999/xlink" xmlns:sketch="http://www.bohemiancoding.com/sketch/ns">
    <!-- Generator: Sketch 3.0.4 (8054) - http://www.bohemiancoding.com/sketch -->
    <title>Slice 2</title>
    <desc>Created with Sketch.</desc>
    <defs></defs>
    <g id="Page-1" stroke="none" stroke-width="1" fill="none" fill-rule="evenodd" sketch:type="MSPage">
        <g id="chair" sketch:type="MSLayerGroup" transform="translate(0.000000, 6.000000)" fill="#000000">
            <g id="Page-1" sketch:type="MSShapeGroup">
                <g id="chair">
                    <g id="chair-studio-sleepingarea">
                        <path d="M29.3333333,109.666667 L29.3333333,114.333333 C29.3333333,115.808 30.528,117 32,117 C33.472,117 34.6666667,115.808 34.6666667,114.333333 L34.6666667,109.666667 L93.3333333,109.666667 L93.3333333,114.333333 C93.3333333,115.808 94.528,117 96,117 C97.472,117 98.6666667,115.808 98.6666667,114.333333 L98.6666667,109.666667 C108.96,109.666667 117.333333,101.290667 117.333333,91 L117.333333,80.3333333 C117.333333,78.7173333 118.298667,77.2693333 119.789333,76.6453333 C124.778667,74.5706667 128,69.736 128,64.3333333 C128,56.9813333 122.018667,51 114.666667,51 C102.904,51 93.3333333,60.5706667 93.3333333,72.3333333 L93.3333333,76.2293333 C88.6106667,74.5413333 79.4746667,72.3333333 64,72.3333333 C48.5253333,72.3333333 39.3893333,74.5413333 34.6666667,76.2293333 L34.6666667,72.3333333 C34.6666667,60.5706667 25.096,51 13.3333333,51 C5.98133333,51 7.10542736e-15,56.9813333 7.10542736e-15,64.3333333 C7.10542736e-15,69.7333333 3.22133333,74.568 8.21066667,76.6453333 C9.70133333,77.2693333 10.6666667,78.7173333 10.6666667,80.3333333 L10.6666667,91 C10.6666667,101.290667 19.04,109.666667 29.3333333,109.666667 L29.3333333,109.666667 Z M36.9579978,-0.148437479 C30.878017,-0.14843749 25.3177474,4.73462876 24.7803983,10.7860733 C24.7803983,10.7860733 22.671875,20.3046875 25.9492188,33.484375 C29.2265625,46.6640625 33.857115,56.9285597 33.857115,56.9285597 C36.1451673,62.5555834 42.9182204,67.1171875 48.9958661,67.1171875 L79.5334344,67.1171875 C85.6062834,67.1171875 92.2334415,62.5000921 94.2801562,56.7807708 C94.2801562,56.7807708 99.525394,43.28125 101.37305,33.484375 C103.220706,23.6875 103.216313,10.8482446 103.216313,10.8482446 C103.375148,4.77494486 98.5789221,-0.148437359 92.4951294,-0.148437371 L36.9579978,-0.148437479 Z" id="Shape"></path>
                    </g>
                </g>
            </g>
        </g>
    </g>
</svg>