<?xml version="1.0" encoding="UTF-8" standalone="no"?>
<svg width="50px" height="50px" viewBox="0 0 50 50" version="1.1" xmlns="http://www.w3.org/2000/svg" xmlns:xlink="http://www.w3.org/1999/xlink" xmlns:sketch="http://www.bohemiancoding.com/sketch/ns">
    <!-- Generator: Sketch 3.0.4 (8054) - http://www.bohemiancoding.com/sketch -->
    <title>Artboard 1</title>
    <desc>Created with Sketch.</desc>
    <defs></defs>
    <g id="Page-1" stroke="none" stroke-width="1" fill="none" fill-rule="evenodd" sketch:type="MSPage">
        <g id="Artboard-1" sketch:type="MSArtboardGroup" fill="#000000">
            <g id="chair" sketch:type="MSLayerGroup" transform="translate(0.000000, 2.000000)">
                <g id="Page-1" sketch:type="MSShapeGroup">
                    <g id="chair">
                        <g id="Page-1">
                            <g id="chair">
                                <g id="chair-studio-sleepingarea">
                                    <path d="M11.4583333,43.1111112 L11.4583333,44.9494948 C11.4583333,45.5304242 11.925,46 12.5,46 C13.075,46 13.5416667,45.5304242 13.5416667,44.9494948 L13.5416667,43.1111112 L36.4583333,43.1111112 L36.4583333,44.9494948 C36.4583333,45.5304242 36.925,46 37.5,46 C38.075,46 38.5416667,45.5304242 38.5416667,44.9494948 L38.5416667,43.1111112 C42.5625,43.1111112 45.8333332,39.8114749 45.8333332,35.7575758 L45.8333332,31.5555555 C45.8333332,30.9189495 46.2104168,30.3485252 46.7927082,30.1027071 C48.7416668,29.2854142 50,27.3808485 50,25.2525252 C50,22.3562828 47.6635418,20 44.7916668,20 C40.196875,20 36.4583333,23.7702626 36.4583333,28.4040404 L36.4583333,29.9388283 C34.6135417,29.2738586 31.0447917,28.4040404 25,28.4040404 C18.9552083,28.4040404 15.3864583,29.2738586 13.5416667,29.9388283 L13.5416667,28.4040404 C13.5416667,23.7702626 9.803125,20 5.20833332,20 C2.33645833,20 0,22.3562828 0,25.2525252 C0,27.379798 1.25833333,29.2843636 3.20729167,30.1027071 C3.78958333,30.3485252 4.16666668,30.9189495 4.16666668,31.5555555 L4.16666668,35.7575758 C4.16666668,39.8114749 7.4375,43.1111112 11.4583333,43.1111112 L11.4583333,43.1111112 L11.4583333,43.1111112 Z M14.0336845,-8.8817842e-16 C11.6511071,-4.25180112e-09 9.47219021,1.88743838 9.26161786,4.22648686 C9.26161786,4.22648686 8.43534552,7.90569105 9.7196465,13 C11.0039474,18.0943089 12.8185337,22.0618173 12.8185337,22.0618173 C13.7151586,24.2368155 16.369332,26 18.7509943,26 L30.7178282,26 C33.0976109,26 35.6946121,24.2153666 36.4966633,22.0046928 C36.4966633,22.0046928 38.5521279,16.7867596 39.2761735,13 C40.0002191,9.21324041 39.9984976,4.25051777 39.9984976,4.25051777 C40.0607407,1.90302165 38.1812316,4.63832744e-08 35.7971604,4.17449469e-08 L14.0336845,-8.8817842e-16 L14.0336845,-8.8817842e-16 Z" id="Shape"></path>
                                </g>
                            </g>
                        </g>
                    </g>
                </g>
            </g>
        </g>
    </g>
</svg>