<?xml version="1.0" encoding="UTF-8" standalone="no"?>
<svg width="96px" height="97px" viewBox="0 0 96 97" version="1.1" xmlns="http://www.w3.org/2000/svg" xmlns:xlink="http://www.w3.org/1999/xlink" xmlns:sketch="http://www.bohemiancoding.com/sketch/ns">
    <!-- Generator: Sketch 3.1 (8751) - http://www.bohemiancoding.com/sketch -->
    <title>clock</title>
    <desc>Created with Sketch.</desc>
    <defs></defs>
    <g id="Page-1" stroke="none" stroke-width="1" fill="none" fill-rule="evenodd" sketch:type="MSPage">
        <g id="clock" sketch:type="MSLayerGroup" transform="translate(1.000000, 1.000000)" fill="#000000">
            <path d="M48,49.343 L48,27 C48,24.791 46.209,23 44,23 C41.791,23 40,24.791 40,27 L40,51 C40,51.009 40.003,51.018 40.003,51.027 C40.004,51.28 40.029,51.533 40.079,51.782 C40.103,51.905 40.148,52.016 40.183,52.136 C40.222,52.268 40.252,52.402 40.305,52.531 C40.363,52.669 40.441,52.795 40.513,52.925 C40.567,53.025 40.61,53.125 40.673,53.22 C40.82,53.441 40.987,53.648 41.174,53.833 L52.485,65.145 C54.047,66.707 56.582,66.707 58.143,65.145 C59.705,63.583 59.705,61.048 58.143,59.489 L48,49.343 L48,49.343 Z" id="Shape" sketch:type="MSShapeGroup"></path>
            <path d="M-0.5,5.99940027 L-0.5,89.0005997 C-0.5,92.5908731 2.41480796,95.5 6.00370167,95.5 L87.9962983,95.5 C91.5867668,95.5 94.5,92.5897048 94.5,89.0005997 L94.5,5.99940027 C94.5,2.40912687 91.585192,-0.5 87.9962983,-0.5 L6.00370167,-0.5 C2.41323325,-0.5 -0.5,2.41029517 -0.5,5.99940027 Z M87.9962983,6.5 C87.7222526,6.5 87.5,6.27818056 87.5,5.99940027 L87.5,89.0005997 C87.5,88.7221295 87.7223538,88.5 87.9962983,88.5 L6.00370167,88.5 C6.27774738,88.5 6.5,88.7218194 6.5,89.0005997 L6.5,5.99940027 C6.5,6.27787047 6.27764622,6.5 6.00370167,6.5 L87.9962983,6.5 Z" id="path-1" sketch:type="MSShapeGroup"></path>
        </g>
    </g>
</svg>