<?xml version="1.0" encoding="utf-8"?>
<!-- Generator: Adobe Illustrator 16.0.4, SVG Export Plug-In . SVG Version: 6.00 Build 0)  -->
<!DOCTYPE svg PUBLIC "-//W3C//DTD SVG 1.1//EN" "http://www.w3.org/Graphics/SVG/1.1/DTD/svg11.dtd">
<svg version="1.1" id="Layer_1" xmlns="http://www.w3.org/2000/svg" xmlns:xlink="http://www.w3.org/1999/xlink" x="0px" y="0px"
	 width="26px" height="26px" viewBox="0 0 26 26" enable-background="new 0 0 26 26" xml:space="preserve">
<g>
	<path fill="#333333" d="M24,0H2C1.449,0,1,0.449,1,1v1c0,0.551,0.449,1,1,1v19v1v2c0,0.551,0.449,1,1,1h1c0,0,1-0.014,1-1s0-1,0-1
		c0-0.551,0.449-1,1-1h14c0.551,0,1,0.449,1,1c0,0,0,0.011,0,1s1,1,1,1h1c0.551,0,1-0.449,1-1v-2v-1V3c0.551,0,1-0.449,1-1V1
		C25,0.449,24.551,0,24,0z M12,3v18H4V3H12z M22,21h-8V3h8V21z"/>
	<path fill="#333333" d="M16,15c0.553,0,1-0.447,1-1v-2c0-0.553-0.447-1-1-1s-1,0.447-1,1v2C15,14.553,15.447,15,16,15z"/>
	<path fill="#333333" d="M10,15c0.553,0,1-0.447,1-1v-2c0-0.553-0.447-1-1-1s-1,0.447-1,1v2C9,14.553,9.447,15,10,15z"/>
</g>
</svg>
