<?xml version="1.0" encoding="UTF-8" standalone="no"?>
<svg width="93px" height="128px" viewBox="0 0 93 128" version="1.1" xmlns="http://www.w3.org/2000/svg" xmlns:xlink="http://www.w3.org/1999/xlink" xmlns:sketch="http://www.bohemiancoding.com/sketch/ns">
    <!-- Generator: Sketch 3.1.1 (8761) - http://www.bohemiancoding.com/sketch -->
    <title>cookingutensils</title>
    <desc>Created with Sketch.</desc>
    <defs></defs>
    <g id="Page-1" stroke="none" stroke-width="1" fill="none" fill-rule="evenodd" sketch:type="MSPage">
        <path d="M19.15801,51.9406966 C4.5600255,42.3101561 3.218568,44.5681782 2.5607636,37.8590367 L0.0467876,10.1865067 C-0.6140265,3.44666826 5.8025785,0 14.3804533,0 L34.6195631,0 C43.178926,0 49.6148385,3.43855203 48.9532286,10.1865067 L46.4392527,37.8590367 C45.7872328,44.5091807 46.3875357,41.6686287 30.2494894,51.6962139 L30.2494894,71.985862 C34.3372194,73.7471902 37.0042435,77.9773514 36.6501619,82.9157914 L34.3691715,116.19532 C33.9431083,122.711857 30.0431071,128 25.6526026,128 L24.2057524,128 C19.8186664,128 15.9075516,122.714865 15.4715604,116.19532 L13.1408873,82.9157914 C12.7904804,78.1282742 15.2800393,74.0037741 19.15801,72.1521192 L19.15801,51.9406966 L19.15801,51.9406966 Z M63.15801,76.0593034 C48.5600255,85.6898439 47.218568,83.4318218 46.5607636,90.1409633 L44.0467876,117.813493 C43.3859734,124.553332 49.8025784,128 58.3804532,128 L78.619563,128 C87.178926,128 93.614839,124.561448 92.953229,117.813493 L90.439253,90.1409633 C89.787233,83.4908193 90.387536,86.3313713 74.2494894,76.3037861 L74.2494894,56.014138 C78.3372194,54.2528098 81.0042435,50.0226486 80.6501618,45.0842086 L78.3691714,11.80468 C77.9431083,5.288143 74.0431071,0 69.6526026,0 L68.2057523,0 C63.8186663,0 59.9075515,5.285135 59.4715603,11.80468 L57.1408871,45.0842086 C56.7904804,49.8717258 59.2800393,53.9962259 63.15801,55.8478808 L63.15801,76.0593034 L63.15801,76.0593034 Z M34.5,9 C33.1192881,9 32,10.1149118 32,11.4848132 L32,34.5151868 C32,35.8875113 33.109662,37 34.5,37 C35.8807119,37 37,35.8850881 37,34.5151868 L37,11.4848132 C37,10.1124888 35.890338,9 34.5,9 L34.5,9 L34.5,9 Z M24.5,7 C23.1192881,7 22,8.1507231 22,9.55552602 L22,38.444474 C22,39.855852 23.109662,41 24.5,41 C25.8807119,41 27,39.8492769 27,38.444474 L27,9.55552602 C27,8.14414797 25.890338,7 24.5,7 L24.5,7 L24.5,7 Z M14.5,9 C13.1192881,9 12,10.1149118 12,11.4848132 L12,34.5151868 C12,35.8875113 13.1096621,37 14.5,37 C15.8807118,37 17,35.8850881 17,34.5151868 L17,11.4848132 C17,10.1124888 15.8903379,9 14.5,9 L14.5,9 L14.5,9 Z M79.5,118 C78.1192882,118 77,116.885088 77,115.515186 L77,92.4848132 C77,91.1124887 78.1096621,90 79.5,90 C80.8807119,90 82,91.1149119 82,92.4848132 L82,115.515186 C82,116.887512 80.8903379,118 79.5,118 L79.5,118 L79.5,118 Z M69.5,121 C68.1192881,121 67,119.849276 67,118.444474 L67,89.555526 C67,88.144148 68.109662,87 69.5,87 C70.8807119,87 72,88.1507231 72,89.555526 L72,118.444474 C72,119.855852 70.890338,121 69.5,121 L69.5,121 L69.5,121 Z M59.5,118 C58.1192881,118 57,116.885088 57,115.515186 L57,92.4848132 C57,91.1124887 58.109662,90 59.5,90 C60.8807119,90 62,91.1149119 62,92.4848132 L62,115.515186 C62,116.887512 60.890338,118 59.5,118 L59.5,118 L59.5,118 Z" id="cookingutensils" fill="#000000" sketch:type="MSShapeGroup"></path>
    </g>
</svg>