<?xml version="1.0" encoding="UTF-8" standalone="no"?>
<svg width="94px" height="128px" viewBox="0 0 94 128" version="1.1" xmlns="http://www.w3.org/2000/svg" xmlns:xlink="http://www.w3.org/1999/xlink" xmlns:sketch="http://www.bohemiancoding.com/sketch/ns">
    <!-- Generator: Sketch 3.0.4 (8054) - http://www.bohemiancoding.com/sketch -->
    <title>Slice 2</title>
    <desc>Created with Sketch.</desc>
    <defs></defs>
    <g id="Page-1" stroke="none" stroke-width="1" fill="none" fill-rule="evenodd" sketch:type="MSPage">
        <path d="M36.15801,51.9406966 C21.5600255,42.3101561 20.218568,44.5681782 19.5607636,37.8590367 L17.0467876,10.1865067 C16.3859735,3.44666826 22.8025785,0 31.3804533,0 L51.6195631,0 C60.178926,0 66.6148385,3.43855203 65.9532286,10.1865067 L63.4392527,37.8590367 C62.7872328,44.5091807 63.3875357,41.6686287 47.2494894,51.6962139 L47.2494894,71.985862 C51.3372194,73.7471902 54.0042435,77.9773514 53.6501619,82.9157914 L51.3691715,116.19532 C50.9431083,122.711857 47.0431071,128 42.6526026,128 L41.2057524,128 C36.8186664,128 32.9075516,122.714865 32.4715604,116.19532 L30.1408873,82.9157914 C29.7904804,78.1282742 32.2800393,74.0037741 36.15801,72.1521192 L36.15801,51.9406966 L36.15801,51.9406966 Z M80.15801,76.0593034 C65.5600255,85.6898439 64.218568,83.4318218 63.5607636,90.1409633 L61.0467876,117.813493 C60.3859734,124.553332 66.8025784,128 75.3804532,128 L95.619563,128 C104.178926,128 110.614839,124.561448 109.953229,117.813493 L107.439253,90.1409633 C106.787233,83.4908193 107.387536,86.3313713 91.2494894,76.3037861 L91.2494894,56.014138 C95.3372194,54.2528098 98.0042435,50.0226486 97.6501618,45.0842086 L95.3691714,11.80468 C94.9431083,5.288143 91.0431071,0 86.6526026,0 L85.2057523,0 C80.8186663,0 76.9075515,5.285135 76.4715603,11.80468 L74.1408871,45.0842086 C73.7904804,49.8717258 76.2800393,53.9962259 80.15801,55.8478808 L80.15801,76.0593034 L80.15801,76.0593034 Z M51.5,9 C50.1192881,9 49,10.1149118 49,11.4848132 L49,34.5151868 C49,35.8875113 50.109662,37 51.5,37 C52.8807119,37 54,35.8850881 54,34.5151868 L54,11.4848132 C54,10.1124888 52.890338,9 51.5,9 L51.5,9 L51.5,9 Z M41.5,7 C40.1192881,7 39,8.1507231 39,9.55552602 L39,38.444474 C39,39.855852 40.109662,41 41.5,41 C42.8807119,41 44,39.8492769 44,38.444474 L44,9.55552602 C44,8.14414797 42.890338,7 41.5,7 L41.5,7 L41.5,7 Z M31.5,9 C30.1192881,9 29,10.1149118 29,11.4848132 L29,34.5151868 C29,35.8875113 30.1096621,37 31.5,37 C32.8807118,37 34,35.8850881 34,34.5151868 L34,11.4848132 C34,10.1124888 32.8903379,9 31.5,9 L31.5,9 L31.5,9 Z M96.5,118 C95.1192882,118 94,116.885088 94,115.515186 L94,92.4848132 C94,91.1124887 95.1096621,90 96.5,90 C97.8807119,90 99,91.1149119 99,92.4848132 L99,115.515186 C99,116.887512 97.8903379,118 96.5,118 L96.5,118 L96.5,118 Z M86.5,121 C85.1192881,121 84,119.849276 84,118.444474 L84,89.555526 C84,88.144148 85.109662,87 86.5,87 C87.8807119,87 89,88.1507231 89,89.555526 L89,118.444474 C89,119.855852 87.890338,121 86.5,121 L86.5,121 L86.5,121 Z M76.5,118 C75.1192881,118 74,116.885088 74,115.515186 L74,92.4848132 C74,91.1124887 75.109662,90 76.5,90 C77.8807119,90 79,91.1149119 79,92.4848132 L79,115.515186 C79,116.887512 77.890338,118 76.5,118 L76.5,118 L76.5,118 Z" id="cookingutensils" fill="#000000" sketch:type="MSShapeGroup"></path>
    </g>
</svg>