<?xml version="1.0" encoding="utf-8"?>
<!-- Generator: Adobe Illustrator 16.0.0, SVG Export Plug-In . SVG Version: 6.00 Build 0)  -->
<!DOCTYPE svg PUBLIC "-//W3C//DTD SVG 1.1//EN" "http://www.w3.org/Graphics/SVG/1.1/DTD/svg11.dtd">
<svg version="1.1" id="Layer_1" xmlns="http://www.w3.org/2000/svg" xmlns:xlink="http://www.w3.org/1999/xlink" x="0px" y="0px"
	 width="50px" height="50px" viewBox="0 0 50 50" enable-background="new 0 0 50 50" xml:space="preserve">
<g>
	<path d="M40.107,20.823c-0.725-1.676-5.839-7.624-9.089-8.297c-2.655-0.55-7.739,0.886-5.903,4.72
		c1.835,3.832,11.392,5.353,12.51,5.562C38.742,23.018,40.833,22.499,40.107,20.823z M33.41,17.632
		c-0.461-0.014-4.392-0.022-5.37-1.443c-0.978-1.423,0.971-2.319,2.071-2.266c1.346,0.064,3.772,2.131,4.17,2.758
		C34.678,17.307,33.871,17.646,33.41,17.632z"/>
	<path d="M24.294,20.982c-1.762-0.704-9.602-0.291-12.156,2.819c-2.087,2.542-4.14,9.689,0,11.099s11.295-8.159,12.156-9.248
		C25.155,24.562,26.056,21.688,24.294,20.982z M15.513,27.027c-0.232,0.573-0.784,3.807-2.626,3.18
		c-1.842-0.628-0.454-3.808,0.364-5.021c0.605-0.899,1.808-1.567,2.591-1.255S16.041,25.725,15.513,27.027z"/>
	<path d="M26.701,26.325c-2.087,2.542-4.14,9.689,0,11.098c4.14,1.41,12.808-6.607,12.365-8.453
		C38.445,26.376,29.255,23.215,26.701,26.325z M30.075,29.55c-0.231,0.574-0.784,3.807-2.625,3.181
		c-1.842-0.628-0.454-3.807,0.364-5.022c0.605-0.898,1.807-1.567,2.591-1.254S30.603,28.248,30.075,29.55z"/>
</g>
</svg>
