<?xml version="1.0" encoding="UTF-8" standalone="no"?>
<svg width="50px" height="50px" viewBox="0 0 50 50" version="1.1" xmlns="http://www.w3.org/2000/svg" xmlns:xlink="http://www.w3.org/1999/xlink" xmlns:sketch="http://www.bohemiancoding.com/sketch/ns">
    <!-- Generator: Sketch 3.0.4 (8054) - http://www.bohemiancoding.com/sketch -->
    <title>Artboard 1</title>
    <desc>Created with Sketch.</desc>
    <defs></defs>
    <g id="Page-1" stroke="none" stroke-width="1" fill="none" fill-rule="evenodd" sketch:type="MSPage">
        <g id="Artboard-1" sketch:type="MSArtboardGroup" fill="#000000">
            <g id="desk" sketch:type="MSLayerGroup" transform="translate(0.000000, 6.000000)">
                <g id="Page-1" sketch:type="MSShapeGroup">
                    <g id="desk">
                        <path d="M49.0076923,8.228 L40.7807692,0.394 C40.45,0.138 40.0480769,0 39.6346154,0 L10.3461538,0 C9.93269231,0 9.53076923,0.138 9.19807692,0.394 L0.775,8.394 C0.775,8.394 0,8.906 0,10 L0,14 C0,15.102 0.863461538,16 1.92307692,16 L48.0769231,16 C49.1365385,16 50,15.102 50,14 L50,10 C50,8.938 49.0076923,8.228 49.0076923,8.228 L49.0076923,8.228 Z M4,39 C2.898,39 2,38.2056155 2,37.2307693 L2,16 L8,16 L8,37.2307693 C8,38.2056155 7.102,39 6,39 L4,39 L4,39 Z M42,37.2307693 L42,16 L48,16 L48,37.2307693 C48,38.2056155 47.102,39 46,39 L44,39 C42.898,39 42,38.2056155 42,37.2307693 L42,37.2307693 Z M38,30 C36.898,30 36,29.102 36,28 L36,18 L40,18 L40,28 C40,29.102 39.102,30 38,30 L38,30 Z M12,30 C10.898,30 10,29.102 10,28 L10,18 L14,18 L14,28 C14,29.102 13.102,30 12,30 L12,30 Z" id="Shape"></path>
                    </g>
                </g>
            </g>
        </g>
    </g>
</svg>