<?xml version="1.0" encoding="UTF-8" standalone="no"?>
<svg width="26px" height="20px" viewBox="0 0 26 20" version="1.1" xmlns="http://www.w3.org/2000/svg" xmlns:xlink="http://www.w3.org/1999/xlink" xmlns:sketch="http://www.bohemiancoding.com/sketch/ns">
    <!-- Generator: Sketch 3.0.4 (8054) - http://www.bohemiancoding.com/sketch -->
    <title>Slice 2</title>
    <desc>Created with Sketch.</desc>
    <defs></defs>
    <g id="Page-1" stroke="none" stroke-width="1" fill="none" fill-rule="evenodd" sketch:type="MSPage">
        <g id="desk" sketch:type="MSLayerGroup" transform="translate(0.000000, 6.000000)" fill="#000000">
            <path d="M25.484,4.114 L21.206,0.197 C21.034,0.069 20.825,0 20.61,0 L5.38,0 C5.165,0 4.956,0.069 4.783,0.197 L0.403,4.197 C0.403,4.197 0,4.453 0,5 L0,7 C0,7.551 0.449,8 1,8 L25,8 C25.551,8 26,7.551 26,7 L26,5 C26,4.469 25.484,4.114 25.484,4.114 Z M2,20 C1.449,20 1,19.5855385 1,19.0769231 L1,8 L4,8 L4,19.0769231 C4,19.5855385 3.551,20 3,20 L2,20 Z M22,19.0769231 L22,8 L25,8 L25,19.0769231 C25,19.5855385 24.551,20 24,20 L23,20 C22.449,20 22,19.5855385 22,19.0769231 Z M20,15 C19.449,15 19,14.551 19,14 L19,9 L21,9 L21,14 C21,14.551 20.551,15 20,15 Z M6,15 C5.449,15 5,14.551 5,14 L5,9 L7,9 L7,14 C7,14.551 6.551,15 6,15 Z" id="Shape" sketch:type="MSShapeGroup"></path>
        </g>
    </g>
</svg>