<?xml version="1.0" encoding="UTF-8" standalone="no"?>
<svg width="95px" height="83px" viewBox="0 0 95 83" version="1.1" xmlns="http://www.w3.org/2000/svg" xmlns:xlink="http://www.w3.org/1999/xlink" xmlns:sketch="http://www.bohemiancoding.com/sketch/ns">
    <!-- Generator: Sketch 3.1 (8751) - http://www.bohemiancoding.com/sketch -->
    <title>desktopwallpaper</title>
    <desc>Created with Sketch.</desc>
    <defs></defs>
    <g id="Page-1" stroke="none" stroke-width="1" fill="none" fill-rule="evenodd" sketch:type="MSPage">
        <g id="desktopwallpaper" sketch:type="MSLayerGroup" fill="#000000">
            <path d="M92.6094794,2.66453526e-15 L2.39151639,2.66453526e-15 C1.07219652,2.66453526e-15 3.55271368e-15,1.07324365 3.55271368e-15,2.3916293 L3.55271368e-15,65.6083707 C3.55271368e-15,66.9257598 1.07319298,68 2.39151639,68 L92.6084829,68 C93.9278028,68 94.9999993,66.9257598 94.9999993,65.6083707 L94.9999993,2.39262581 C95.0009958,1.07324365 93.9287993,2.66453526e-15 92.6094794,2.66453526e-15 L92.6094794,2.66453526e-15 L92.6094794,2.66453526e-15 Z M88,61 L7,61 L7,7 L88,7 L88,61 L88,61 Z" id="Shape" sketch:type="MSShapeGroup"></path>
            <path d="M64.8066441,75.4335597 L60.032226,75.4335597 L60.032226,71.1639185 C60.032226,70.5208535 59.4972048,70 58.8388701,70 L36.1611299,70 C35.5018008,70 34.967774,70.5208535 34.967774,71.1639185 L34.967774,75.4335597 L30.1933559,75.4335597 C29.5340268,75.4335597 29,75.9544132 29,76.5974782 L29,81.8360815 C29,82.4791465 29.5350212,83 30.1933559,83 L64.8066441,83 C65.4659732,83 66,82.4791465 66,81.8360815 L66,76.5974782 C66,75.9544132 65.4649788,75.4335597 64.8066441,75.4335597 Z M16.0352418,13 C14.9117883,13 14,13.9117395 14,15.0351328 L14,32 L33,13 L16.0352418,13 Z M59.4846792,30.4298831 C60.1652658,30.6508201 60.1742209,31.6092088 59.4966193,31.8450739 L52.5265764,34.2664236 C51.9027054,34.4843749 51.7206186,35.2785537 52.1862831,35.7472983 L59.4010984,42.9605917 C59.9831791,43.5427904 59.9831791,44.4892366 59.4010984,45.0714354 L57.0697907,47.403216 C56.48771,47.9854147 55.5414558,47.9854147 54.9593751,47.403216 L47.7445599,40.1869371 C47.2759103,39.7181924 46.4818925,39.9033018 46.2639854,40.5272995 L43.8431268,47.4987563 C43.6073096,48.1735098 42.6491152,48.1645528 42.428223,47.4868137 L35.0760964,24.9572148 C34.6969978,23.7958029 35.7984735,22.6970894 36.9596498,23.076265 L59.4846792,30.4298831 Z" id="Shape" sketch:type="MSShapeGroup"></path>
        </g>
    </g>
</svg>