<?xml version="1.0" encoding="iso-8859-1"?>
<!-- Generator: Adobe Illustrator 17.1.0, SVG Export Plug-In . SVG Version: 6.00 Build 0)  -->
<!DOCTYPE svg PUBLIC "-//W3C//DTD SVG 1.1//EN" "http://www.w3.org/Graphics/SVG/1.1/DTD/svg11.dtd">
<svg version="1.1" id="Capa_1" xmlns="http://www.w3.org/2000/svg" xmlns:xlink="http://www.w3.org/1999/xlink" x="0px" y="0px"
	 viewBox="0 0 100 100" style="enable-background:new 0 0 100 100;" xml:space="preserve">
<g>
	<path d="M6.667,75h86.667c1.657,0,3-1.343,3-3V28c0-1.657-1.343-3-3-3H6.667c-1.657,0-3,1.343-3,3v44
		C3.667,73.657,5.01,75,6.667,75z M90.35,43.532c1.708,0,3.091,1.384,3.091,3.092c0,1.708-1.384,3.092-3.091,3.092
		s-3.092-1.384-3.092-3.092C87.258,44.916,88.643,43.532,90.35,43.532z M83.283,50.599c1.708,0,3.092,1.384,3.092,3.092
		c0,1.707-1.384,3.092-3.092,3.092s-3.092-1.384-3.092-3.092C80.191,51.983,81.576,50.599,83.283,50.599z M22.5,31.566
		c0-1.58,1.352-2.86,3.019-2.86h48.963c1.667,0,3.019,1.281,3.019,2.86v36.868c0,1.58-1.352,2.86-3.019,2.86H25.519
		c-1.667,0-3.019-1.281-3.019-2.86V31.566z M7.271,48.843c0-0.376,0.305-0.681,0.681-0.681H11.9v-3.949
		c0-0.376,0.305-0.681,0.681-0.681h2.315c0.376,0,0.681,0.305,0.681,0.681v3.949h3.949c0.376,0,0.681,0.305,0.681,0.681v2.315
		c0,0.376-0.305,0.681-0.681,0.681h-3.949v3.949c0,0.376-0.305,0.681-0.681,0.681h-2.315c-0.376,0-0.681-0.305-0.681-0.681v-3.949
		H7.951c-0.376,0-0.681-0.305-0.681-0.681V48.843z"/>
</g>
</svg>
