<?xml version="1.0" encoding="UTF-8" standalone="no"?>
<svg width="248px" height="227px" viewBox="0 0 248 227" version="1.1" xmlns="http://www.w3.org/2000/svg" xmlns:xlink="http://www.w3.org/1999/xlink" xmlns:sketch="http://www.bohemiancoding.com/sketch/ns">
    <!-- Generator: Sketch 3.1 (8751) - http://www.bohemiancoding.com/sketch -->
    <title>Slice 2</title>
    <desc>Created with Sketch.</desc>
    <defs></defs>
    <g id="Page-1" stroke="none" stroke-width="1" fill="none" fill-rule="evenodd" sketch:type="MSPage">
        <g id="Fruits-512.png" sketch:type="MSLayerGroup" transform="translate(9.000000, 5.000000)" fill="#000000">
            <g id="Group" sketch:type="MSShapeGroup">
                <path d="M100.654,54.897 C110.516,72.119 116.592,90.797 121.226,109.98 C124.355,122.932 126.666,136.026 127.238,149.377 C127.698,160.108 126.358,170.563 121.962,180.441 C114.66,196.849 101.931,206.924 84.543,210.526 C70.231,213.491 55.642,213.554 41.338,210.277 C19.293,205.227 4.258,188.531 0.662,166.194 C-1.32,153.884 -0.235,141.692 1.75,129.549 C5.323,107.693 11.128,86.458 20.317,66.242 C24.854,56.262 30.16,46.737 37.843,38.761 C42.807,33.607 48.457,29.591 55.825,28.691 C56.536,28.604 66.893,27.195 70.441,23.338 C77.293,15.891 84.698,8.954 91.829,1.761 C93.556,0.019 95.47,-0.85 97.849,-0.024 C101.583,1.273 102.341,5.667 99.316,8.724 C92.753,15.357 86.129,21.929 79.534,28.53 C78.923,29.143 78.343,29.785 77.61,30.559 C88.436,35.994 95.017,45.052 100.654,54.897 Z" id="Shape"></path>
                <path d="M128.507,96.952 C135.435,93.388 142.714,90.945 150.479,90.22 C154.596,89.836 158.76,89.974 162.893,89.718 C163.873,89.657 165.048,89.197 165.736,88.519 C173.513,80.848 181.206,73.092 188.937,65.374 C191.05,63.264 193.23,62.813 195.401,63.946 C198.595,65.614 199.062,69.601 196.297,72.401 C190.919,77.848 185.483,83.239 180.077,88.659 C179.531,89.207 179.025,89.795 178.312,90.571 C185.94,91.912 193.019,94.098 199.4,97.955 C223.747,112.672 236.014,134.278 233.973,162.749 C232.368,185.143 219.348,199.607 198.649,207.439 C191.747,210.05 184.56,211.628 177.213,211.92 C160.489,212.584 143.702,213.486 127.585,207.391 C125.28,206.519 123.037,205.48 120.779,204.488 C120.131,204.203 119.53,203.81 118.804,203.409 C119.087,203.015 119.278,202.676 119.536,202.4 C131.664,189.395 136.884,173.655 137.467,156.223 C137.942,142.027 135.365,128.13 132.523,114.302 C131.34,108.545 129.881,102.847 128.507,96.952 L128.507,96.952 Z" id="Shape"></path>
                <path d="M163.475,80.632 C163.324,83.908 160.955,85.864 157.719,85.524 C140.959,83.766 124.359,68.652 121.124,52.128 C119.431,43.482 120.929,35.16 124.04,27.067 C125.037,24.472 127.233,23.44 130.016,23.924 C146.875,26.856 156.726,37.323 160.847,53.382 C162.557,60.046 163.72,73.902 163.495,73.935 C163.495,76.168 163.578,78.404 163.475,80.632 Z" id="Shape"></path>
            </g>
        </g>
    </g>
</svg>