<?xml version="1.0" encoding="UTF-8" standalone="no"?>
<svg width="50px" height="50px" viewBox="0 0 50 50" version="1.1" xmlns="http://www.w3.org/2000/svg" xmlns:xlink="http://www.w3.org/1999/xlink" xmlns:sketch="http://www.bohemiancoding.com/sketch/ns">
    <!-- Generator: Sketch 3.0.4 (8054) - http://www.bohemiancoding.com/sketch -->
    <title>Artboard 1</title>
    <desc>Created with Sketch.</desc>
    <defs></defs>
    <g id="Page-1" stroke="none" stroke-width="1" fill="none" fill-rule="evenodd" sketch:type="MSPage">
        <g id="Artboard-1" sketch:type="MSArtboardGroup" fill="#000000">
            <g id="goldfish" sketch:type="MSLayerGroup" transform="translate(11.000000, 0.000000)">
                <g id="Group" sketch:type="MSShapeGroup">
                    <path d="M16.7584,41.0420635 C16.7632,41.0452381 14.6088,46.9071429 18.864,50.1198413 C18.864,50.1198413 21.8,47.1301587 20.3232,43.5603175 C24.1832,44.0190476 26.3056,40.415873 26.3056,40.415873 C22.0488,37.2047619 16.7584,41.0420635 16.7584,41.0420635 L16.7584,41.0420635 Z" id="Shape"></path>
                    <path d="M27.6048,7.9047619 C27.3392,7.92142857 26.9544,7.96190476 26.504,8.06269841 C25.5992,8.25238095 24.4176,8.63412698 23.2864,9.1484127 C22.4536,9.52777778 21.6408,9.9531746 20.9536,10.4111111 C20.936,10.3865079 20.9144,10.3634921 20.8976,10.3396825 C20.812,10.1992063 20.7424,10.0873016 20.7192,10.0571429 C19.5152,8.45873016 17.7808,7.7031746 15.984,7.62619048 C16.0016,6.80396825 15.924,5.89603175 15.796,4.99603175 C15.6216,3.77380952 15.3072,2.58015873 14.9792,1.72222222 C14.8216,1.29206349 14.6488,0.948412698 14.5184,0.717460317 C14.3808,0.491269841 14.3016,0.361904762 14.3016,0.361904762 C14.3016,0.361904762 14.352,0.503174603 14.4384,0.750793651 C14.5152,1.00079365 14.6104,1.36031746 14.6728,1.8015873 C14.8088,2.68015873 14.8648,3.86825397 14.784,5.04047619 C14.7192,6.03253968 14.5728,7.01031746 14.3672,7.74206349 C11.8736,8.18174603 9.5256,9.83333333 8.5872,12.2936508 C8.0288,13.7595238 7.4808,15.2309524 7.0368,16.7349206 C6.8216,17.4634921 4.832,18.0246032 4.1992,18.1095238 C2.7032,18.3087302 1.7152,17.6603175 0.5768,16.8373016 C0.3808,16.6674603 0.2688,16.5722222 0.2688,16.5722222 C0.2688,16.5722222 0.5928,21.1833333 6.1344,21.4865079 C6.0616,22.4452381 6.0464,23.4087302 6.084,24.3380952 C6.3464,30.7611111 9.8472,37.4753968 15.5264,40.7928571 C15.532,40.7960317 15.5392,40.797619 15.5464,40.8015873 C15.504,40.7420635 15.46,40.681746 15.42,40.6277778 C15.1744,40.2230159 11.0784,36.2277778 11.0008,26.5373016 C10.9384,18.7666667 15.6264,14.1690476 15.6264,14.1690476 C15.6264,14.1690476 11.5536,19.6507937 12.2432,26.5809524 C12.9008,33.184127 15.224,37.415873 15.6256,38.0555556 C14.752,36.1944444 14.1736,34.2357143 14.1472,32.0301587 C14.124,30.0611111 14.532,28.3738095 15.228,26.8396825 C16.8736,27.984127 19.5288,28.5309524 21.3664,27.5063492 C21.0016,27.7087302 18.9552,26.347619 18.6312,26.0849206 C17.8408,25.4436508 17.272,24.5230159 17.2896,23.4984127 C18.1576,22.3674603 19.2184,21.3325397 20.18,20.147619 C22.5488,17.231746 22.8648,15.0325397 21.7432,11.8071429 C22.2528,11.2452381 22.9936,10.6031746 23.792,10.0198413 C24.7424,9.31984127 25.7808,8.72539683 26.6008,8.36507937 C27.0096,8.17857143 27.3664,8.06507937 27.6192,7.99365079 C27.8752,7.93253968 28.0224,7.89761905 28.0224,7.89761905 C28.0224,7.89761905 27.8712,7.8984127 27.6048,7.9047619 L27.6048,7.9047619 Z" id="Shape"></path>
                </g>
            </g>
        </g>
    </g>
</svg>