<?xml version="1.0" encoding="UTF-8" standalone="no"?>
<svg width="48px" height="49px" viewBox="0 0 48 49" version="1.1" xmlns="http://www.w3.org/2000/svg" xmlns:xlink="http://www.w3.org/1999/xlink" xmlns:sketch="http://www.bohemiancoding.com/sketch/ns">
    <!-- Generator: Sketch 3.1 (8751) - http://www.bohemiancoding.com/sketch -->
    <title>fish24</title>
    <desc>Created with Sketch.</desc>
    <defs></defs>
    <g id="Page-1" stroke="none" stroke-width="1" fill="none" fill-rule="evenodd" sketch:type="MSPage">
        <g id="fish24" sketch:type="MSLayerGroup" fill="#000000">
            <path d="M46.344,4.631 C46.344,2.074 43.856,0 40.787,0 L9.298,0 C6.229,0 3.741,2.073 3.741,4.631 C3.741,6.561 6.021,8.305 8.036,9 C3.906,13.297 0.5,19.039 0.5,25.469 C0.5,38.672 11.203,49.375 24.406,49.375 C37.609,49.375 48.312,38.672 48.312,25.469 C48.312,19.168 45.87,13.44 41.887,9.17 C44.429,8.744 46.344,6.874 46.344,4.631 L46.344,4.631 Z M17.349,11.54 C20.328,11.54 22.743,13.955 22.743,16.934 C22.743,19.913 20.328,22.328 17.349,22.328 C14.37,22.328 11.955,19.913 11.955,16.934 C11.955,13.955 14.369,11.54 17.349,11.54 L17.349,11.54 Z M15.819,27.374 C15.819,28.174 15.17,28.823 14.37,28.823 C13.57,28.823 12.921,28.174 12.921,27.374 C12.921,26.574 13.57,25.925 14.37,25.925 C15.17,25.925 15.819,26.574 15.819,27.374 L15.819,27.374 Z M10.907,20.396 C12.345,20.396 13.51,21.562 13.51,22.999 C13.51,24.436 12.344,25.602 10.907,25.602 C9.47,25.602 8.304,24.437 8.304,23 C8.304,21.563 9.47,20.396 10.907,20.396 L10.907,20.396 Z M41.083,40.417 C40.083,41.604 34.562,48 24,48 C13.437,48 6.437,39.125 6.437,39.125 C5.781,38.125 11.937,38.187 15.125,40.375 C18.312,42.563 23.187,44.187 27.125,41.437 C31.062,38.688 42.083,39.229 41.083,40.417 L41.083,40.417 Z M25.632304,24.5061497 C31.6001744,24.7393958 33.5042996,28.2867762 34.058838,29.7563111 C36.0718404,25.9094984 40.7676849,24.5061497 40.7676849,24.5061497 C40.7676849,24.5061497 38.621336,27.9531905 38.621336,30.4606516 C38.621336,32.9681127 40.6262572,36.4367778 40.6262572,36.4367778 C40.6262572,36.4367778 36.5367564,35.4774267 34.0759923,31.4516677 C34.0759923,31.4516677 31.4758934,36.7591035 25.7452132,36.8204655 C20.014533,36.881828 16.9999556,30.7521013 16.9999556,30.7521013 C16.9999556,30.7521013 19.6644337,24.2729037 25.632304,24.5061497 Z" id="Shape" sketch:type="MSShapeGroup"></path>
        </g>
    </g>
</svg>