<?xml version="1.0" encoding="UTF-8" standalone="no"?>
<svg width="30px" height="30px" viewBox="0 0 30 30" version="1.1" xmlns="http://www.w3.org/2000/svg" xmlns:xlink="http://www.w3.org/1999/xlink" xmlns:sketch="http://www.bohemiancoding.com/sketch/ns">
    <!-- Generator: Sketch 3.0.4 (8054) - http://www.bohemiancoding.com/sketch -->
    <title>Artboard 1</title>
    <desc>Created with Sketch.</desc>
    <defs></defs>
    <g id="Page-1" stroke="none" stroke-width="1" fill="none" fill-rule="evenodd" sketch:type="MSPage">
        <g id="Artboard-1" sketch:type="MSArtboardGroup" fill="#000000">
            <g id="help" sketch:type="MSLayerGroup" transform="translate(5.000000, 0.000000)">
                <path d="M6.12333333,24.5614286 L11.2544444,24.5614286 L11.2544444,29.8789286 L6.12333333,29.8789286 L6.12333333,24.5614286 L6.12333333,24.5614286 Z M17.9666667,1.82892857 C16.63,0.691071429 14.1388889,0.121071429 10.4922222,0.121071429 C6.36888889,0.121071429 3.59777778,0.671785714 2.17888889,1.77428571 C0.76,2.87464286 0.05,5.0175 0.05,8.20285714 L0.0266666667,9.28285714 L5.11222222,9.28285714 L5.09,8.15892857 C5.09,6.63321429 5.42666667,5.61214286 6.09777778,5.10107143 C6.76888889,4.59 8.11333333,4.33285714 10.1322222,4.33285714 C12.2833333,4.33285714 13.67,4.57714286 14.2888889,5.05714286 C14.9088889,5.54035714 15.2188889,6.61821429 15.2188889,8.28964286 C15.2188889,10.3071429 14.39,11.6464286 12.7322222,12.3096429 L10.7366667,13.1303571 C8.64555556,13.9671429 7.35333333,14.7771429 6.86,15.5625 C6.36888889,16.3467857 6.12111111,17.9646429 6.12111111,20.415 L11.3211111,20.415 L11.3211111,19.7228571 C11.3211111,18.2110714 12.4177778,17.0078571 14.6155556,16.1164286 C16.8711111,15.1939286 18.3288889,14.2457143 18.9866667,13.2760714 C19.6444444,12.3032143 19.9733333,10.5996429 19.9733333,8.16428571 C19.9733333,5.07642857 19.3033333,2.96571429 17.9666667,1.82892857 L17.9666667,1.82892857 Z" id="Shape" sketch:type="MSShapeGroup"></path>
            </g>
        </g>
    </g>
</svg>