<?xml version="1.0" encoding="UTF-8" standalone="no"?>
<svg width="50px" height="50px" viewBox="0 0 50 50" version="1.1" xmlns="http://www.w3.org/2000/svg" xmlns:xlink="http://www.w3.org/1999/xlink" xmlns:sketch="http://www.bohemiancoding.com/sketch/ns">
    <!-- Generator: Sketch 3.0.4 (8054) - http://www.bohemiancoding.com/sketch -->
    <title>Artboard 1</title>
    <desc>Created with Sketch.</desc>
    <defs></defs>
    <g id="Page-1" stroke="none" stroke-width="1" fill="none" fill-rule="evenodd" sketch:type="MSPage">
        <g id="Artboard-1" sketch:type="MSArtboardGroup" fill="#000000">
            <g id="lamp" sketch:type="MSLayerGroup" transform="translate(6.000000, 0.000000)">
                <g id="Group" sketch:type="MSShapeGroup">
                    <rect id="Rectangle-path" x="18" y="28" width="4" height="17"></rect>
                    <path d="M25.6853623,28 L25.6853623,30.8299253 C24.7070614,31.1913799 24,32.1709318 24,33.3365985 C24,34.8078854 25.1189776,36 26.5,36 C27.8810224,36 29,34.8078854 29,33.3365985 C29,32.2561528 28.3931592,31.3304763 27.5251931,30.9122077 L27.5251931,28 L25.6853623,28 L25.6853623,28 Z" id="Shape"></path>
                    <path d="M21.4830172,26 L25.4490517,26 L27.4320689,26 L39,26 L36.7710886,0 L36.3556465,0 L2.22891137,0 L0,26 L17.5169828,26 L21.4830172,26 Z" id="Shape"></path>
                    <path d="M7,48 L7,49 C7,49.551 7.448,50 8,50 L31,50 C31.552,50 32,49.551 32,49 L32,48 C32,47.449 31.552,47 31,47 L8,47 C7.448,47 7,47.449 7,48 L7,48 Z" id="Shape"></path>
                </g>
            </g>
        </g>
    </g>
</svg>