<?xml version="1.0" encoding="UTF-8" standalone="no"?>
<svg width="50px" height="50px" viewBox="0 0 50 50" version="1.1" xmlns="http://www.w3.org/2000/svg" xmlns:xlink="http://www.w3.org/1999/xlink" xmlns:sketch="http://www.bohemiancoding.com/sketch/ns">
    <!-- Generator: Sketch 3.0.4 (8054) - http://www.bohemiancoding.com/sketch -->
    <title>Artboard 1</title>
    <desc>Created with Sketch.</desc>
    <defs></defs>
    <g id="Page-1" stroke="none" stroke-width="1" fill="none" fill-rule="evenodd" sketch:type="MSPage">
        <g id="Artboard-1" sketch:type="MSArtboardGroup" fill="#010101">
            <g id="lock" sketch:type="MSLayerGroup" transform="translate(5.000000, 0.000000)">
                <g id="Page-1" sketch:type="MSShapeGroup">
                    <g id="lock">
                        <path d="M7.18335813,13.0030459 L7.18335813,20.0045505 L4.10485673,20.0045505 C1.83698072,20.0045505 3.55271368e-15,21.7949725 3.55271368e-15,24.0055046 L3.55271368e-15,44.0103852 C3.55271368e-15,46.2208072 1.83698072,48.0111191 4.10485673,48.0111191 L36.9425813,48.0111191 C39.2103444,48.0111191 41.0476641,46.2208072 41.0476641,44.0103852 L41.0476641,24.0055046 C41.0476641,21.7949725 39.2103444,20.0045505 36.9425813,20.0045505 L33.8643058,20.0045505 L33.8643058,13.0030459 C33.8643058,5.82154127 27.8914077,0 20.523832,0 C13.1562562,0 7.18335813,5.82143119 7.18335813,13.0030459 L7.18335813,13.0030459 L7.18335813,13.0030459 Z M12.3143444,20.0045505 L12.3143444,13.0030459 C12.3143444,8.58209174 15.7838768,5.00102754 20.0676427,5.00102754 C24.3514085,5.00102754 28.7333196,8.58209174 28.7333196,13.0030459 L28.7333196,20.0045505 L12.3143444,20.0045505 Z M16.4189752,31.0072294 C16.4189752,28.7968073 18.255843,27.0063853 20.523719,27.0063853 C22.791595,27.0063853 24.6283499,28.7968073 24.6283499,31.0072294 C24.6283499,32.4177248 23.8790551,33.6581284 22.750595,34.3682202 C22.750595,34.3682202 23.1515592,36.7292477 23.6024463,39.5093945 C23.6024463,40.3392661 22.9149339,41.0093945 22.0630826,41.0093945 L18.9843554,41.0093945 C18.1326171,41.0093945 17.4452176,40.3392661 17.4452176,39.5093945 L18.2970689,34.3682202 C17.1684959,33.6581284 16.4189752,32.4176147 16.4189752,31.0072294 L16.4189752,31.0072294 L16.4189752,31.0072294 Z" id="Shape"></path>
                    </g>
                </g>
            </g>
        </g>
    </g>
</svg>