<?xml version="1.0" encoding="UTF-8" standalone="no"?>
<svg width="128px" height="128px" viewBox="0 0 128 128" version="1.1" xmlns="http://www.w3.org/2000/svg" xmlns:xlink="http://www.w3.org/1999/xlink" xmlns:sketch="http://www.bohemiancoding.com/sketch/ns">
    <!-- Generator: Sketch 3.0.4 (8054) - http://www.bohemiancoding.com/sketch -->
    <title>lock</title>
    <desc>Created with Sketch.</desc>
    <defs></defs>
    <g id="Page-1" stroke="none" stroke-width="1" fill="none" fill-rule="evenodd" sketch:type="MSPage">
        <g id="lock" sketch:type="MSArtboardGroup" fill="#010101">
            <path d="M30.8707934,34.0494083 L30.8707934,51.8448991 L23.2120826,51.8448991 C17.5700496,51.8448991 13,56.395555 13,62.0139908 L13,112.859729 C13,118.477885 17.5700496,123.028261 23.2120826,123.028261 L104.905934,123.028261 C110.547686,123.028261 115.118579,118.477885 115.118579,112.859729 L115.118579,62.0139908 C115.118579,56.395555 110.547686,51.8448991 104.905934,51.8448991 L97.2477851,51.8448991 L97.2477851,34.0494083 C97.2477851,15.7964174 82.3883802,1 64.0592893,1 C45.7301983,1 30.8707934,15.7961376 30.8707934,34.0494083 L30.8707934,34.0494083 Z M43.635686,51.8448991 L43.635686,34.0494083 C43.635686,22.8128165 52.7749421,13.710945 64.0590083,13.710945 C75.3430744,13.710945 84.4828926,22.8128165 84.4828926,34.0494083 L84.4828926,51.8448991 L43.635686,51.8448991 L43.635686,51.8448991 Z M53.8472066,79.8100413 C53.8472066,74.1918853 58.4169752,69.6412294 64.0590083,69.6412294 C69.7010413,69.6412294 74.2705289,74.1918853 74.2705289,79.8100413 C74.2705289,83.3950505 72.4064298,86.5477431 69.5990413,88.3525596 C69.5990413,88.3525596 70.596562,94.3535046 71.718281,101.419711 C71.718281,103.528968 70.0078843,105.232211 67.8886446,105.232211 L60.2293719,105.232211 C58.1104132,105.232211 56.4002975,103.528968 56.4002975,101.419711 L58.5195372,88.3525596 C55.7118678,86.5477431 53.8472066,83.3947706 53.8472066,79.8100413 L53.8472066,79.8100413 Z" id="Shape" sketch:type="MSShapeGroup"></path>
        </g>
    </g>
</svg>