<?xml version="1.0" encoding="UTF-8" standalone="no"?>
<svg width="53px" height="113px" viewBox="0 0 53 113" version="1.1" xmlns="http://www.w3.org/2000/svg" xmlns:xlink="http://www.w3.org/1999/xlink" xmlns:sketch="http://www.bohemiancoding.com/sketch/ns">
    <!-- Generator: Sketch 3.1 (8751) - http://www.bohemiancoding.com/sketch -->
    <title>lotus</title>
    <desc>Created with Sketch.</desc>
    <defs></defs>
    <g id="Page-1" stroke="none" stroke-width="1" fill="none" fill-rule="evenodd" sketch:type="MSPage">
        <g id="lotus" sketch:type="MSLayerGroup" fill="#000000">
            <g id="Group" sketch:type="MSShapeGroup">
                <path d="M35.6456278,13.3082859 C35.6456278,18.1474341 33.8317356,22.6882499 30.5616576,26.2668386 C29.6286844,27.2892925 29.8662655,28.09465 31.2130038,27.991004 C35.0236456,27.6940721 38.6247355,26.1211738 41.3929565,23.2148837 C44.7618042,19.6797144 46.2607011,14.8517711 45.9630573,9.90757616 C45.8776348,8.49294816 44.5736078,7.1259413 43.2255349,7.03770213 C41.2141033,6.90604368 39.2240273,7.11893819 37.3393946,7.68058752 C36.0380371,8.06855976 35.3266283,9.60364123 35.493469,10.9160238 C35.5949082,11.7031733 35.6456278,12.5015277 35.6456278,13.3082859 L35.6456278,13.3082859 L35.6456278,13.3082859 Z" id="Shape"></path>
                <path d="M51.8265039,19.4929041 C51.1904636,19.0359408 50.5341673,18.621986 49.8562644,18.2523834 C48.6557552,17.5991949 47.2850951,18.2832956 46.6909173,19.5076881 C45.8469147,21.2481803 44.7179769,22.8448634 43.3122063,24.2412893 C39.9632042,27.5757765 35.3650784,29.4224454 30.3618313,29.4224454 C30.2510982,29.4224454 30.1403651,29.4211014 30.0269311,29.4170694 C29.8419258,29.4116933 30.6265105,30.0057455 31.8756343,30.5621654 C35.0031701,31.9518711 38.4696573,32.3953941 41.9185893,31.6225887 C46.6220467,30.5702294 50.3910244,27.4628797 52.6853609,23.2937626 C53.3416573,22.0989382 52.9311345,20.2899016 51.8265039,19.4929041 L51.8265039,19.4929041 L51.8265039,19.4929041 Z" id="Shape"></path>
                <path d="M22.63948,29.4215535 C17.63841,29.4215535 13.038452,27.5738645 9.68774854,24.2413057 C8.2831812,22.8424371 7.15412515,21.2460339 6.3100342,19.5085344 C5.71579417,18.2843565 4.34093883,17.5990319 3.14300496,18.252106 C2.46503111,18.6216438 1.80731544,19.035526 1.1739096,19.4937529 C0.0678128171,20.2919546 -0.341402475,22.0993302 0.314962647,23.2939451 C2.60683839,27.4650189 6.37756147,30.5718238 11.0815115,31.6226549 C14.5294542,32.3953248 17.9963046,31.9518795 21.1255185,30.5624174 C22.3734226,30.0074389 23.1580895,29.4148346 22.9730648,29.4175222 C22.8609695,29.4202097 22.7502248,29.4215535 22.63948,29.4215535 L22.63948,29.4215535 L22.63948,29.4215535 Z" id="Shape"></path>
                <path d="M21.7141918,27.9915007 C23.1430533,28.0923335 23.3934578,27.2828703 22.4031577,26.2605379 C18.9427664,22.6837751 17.0187548,18.1463 17.0187548,13.3077269 C17.0187548,12.5038656 17.072514,11.708407 17.1772029,10.9255525 C17.3526274,9.61752721 16.5985847,8.08402866 15.2220676,7.69330164 C13.2117585,7.12191588 11.0868575,6.90484531 8.93790639,7.03788856 C7.50904489,7.12611725 6.12969838,8.49296161 6.03915666,9.90742145 C5.72367536,14.8510287 7.31239959,19.6769975 10.8831386,23.2117467 C13.828574,26.1274947 17.6610352,27.7044074 21.7141918,27.9915007 L21.7141918,27.9915007 L21.7141918,27.9915007 Z" id="Shape"></path>
                <path d="M29.017924,0.702594423 C27.9612808,-0.234198141 26.0387192,-0.234198141 24.982076,0.702594423 C21.2873053,3.97646739 19,8.4993971 19,13.499825 C19,18.4988526 21.2873053,23.0245828 24.982076,26.2984558 C26.0387192,27.2338481 27.9612808,27.2338481 29.017924,26.2984558 C32.7126947,23.0245828 35,18.5002528 35,13.499825 C35,8.50079739 32.7126947,3.97646739 29.017924,0.702594423 L29.017924,0.702594423 L29.017924,0.702594423 Z" id="Shape"></path>
            </g>
            <path d="M16,50 C17.1652831,57.2390137 15.9999999,62.8442383 12,68 C10.3431667,70.1355594 9.56752824,70.6694588 8,73 C4.35766597,78.4152832 2.46667571,84.4641812 3,90 C3.72863891,95.1238219 5.48726027,99.4617345 8,104 C9.55270834,106.324469 11.4870413,108.875088 14,111 C15.7436275,112.275535 17.634691,113.030516 20,113 C22.5105948,112.879899 30.8623531,112.828682 32,113 C35.6212413,113.247525 38.145544,111.893113 40,110 C43.8089519,106.277804 46.1899011,102.165627 48,98 C51.405188,88.9671272 50.5345312,80.7882991 45,73 C43.5734156,71.313864 42.1797627,69.4248954 41,68 C36.819241,62.4240644 35.435747,56.7435007 37,50 C37.9160277,45.1156639 41.510403,34.3941832 42,34 L11,34 C11.5193993,34.4503325 15.1487034,44.7115446 16,50 Z" id="Shape" sketch:type="MSShapeGroup"></path>
        </g>
    </g>
</svg>