<?xml version="1.0" encoding="UTF-8" standalone="no"?>
<svg width="50px" height="50px" viewBox="0 0 50 50" version="1.1" xmlns="http://www.w3.org/2000/svg" xmlns:xlink="http://www.w3.org/1999/xlink" xmlns:sketch="http://www.bohemiancoding.com/sketch/ns">
    <!-- Generator: Sketch 3.0.4 (8054) - http://www.bohemiancoding.com/sketch -->
    <title>Artboard 1</title>
    <desc>Created with Sketch.</desc>
    <defs></defs>
    <g id="Page-1" stroke="none" stroke-width="1" fill="none" fill-rule="evenodd" sketch:type="MSPage">
        <g id="Artboard-1" sketch:type="MSArtboardGroup" fill="#000000">
            <g id="pictures" sketch:type="MSLayerGroup" transform="translate(3.000000, 2.000000)">
                <g id="Group" sketch:type="MSShapeGroup">
                    <path d="M1.2084375,46 L43.81125,46 L38.510625,40.48 L6.8334375,40.48 L1.2084375,46 Z" id="Shape"></path>
                    <path d="M45,1.34504 L40.3125,6.44276 L40.3125,39.67408 L45,44.5556 L45,1.34504 Z" id="Shape"></path>
                    <path d="M38.6353125,5.52 L43.711875,0 L1.125,0 L6.8709375,5.52 L38.6353125,5.52 Z" id="Shape"></path>
                    <path d="M5.625,6.89632 L0,1.49316 L0,44.58412 L5.625,39.06412 L5.625,6.89632 Z" id="Shape"></path>
                    <path d="M7.5,15.84424 L7.5,19.64108 L25.385625,7.36 L19.8496875,7.36 L7.5,15.84424 Z" id="Shape"></path>
                    <path d="M7.5,37.22412 L7.5,38.64 L8.7084375,38.64 L36.7434375,38.64 L38.4375,38.64 L38.4375,37.72092 L38.4375,8.48148 L38.4375,7.36 L36.943125,7.36 L30.3665625,7.36 L7.5,23.05704 L7.5,37.22412 Z" id="Shape"></path>
                </g>
            </g>
        </g>
    </g>
</svg>