<?xml version="1.0" encoding="UTF-8" standalone="no"?>
<svg width="74px" height="134px" viewBox="0 0 74 134" version="1.1" xmlns="http://www.w3.org/2000/svg" xmlns:xlink="http://www.w3.org/1999/xlink" xmlns:sketch="http://www.bohemiancoding.com/sketch/ns">
    <!-- Generator: Sketch 3.1 (8751) - http://www.bohemiancoding.com/sketch -->
    <title>officeplant</title>
    <desc>Created with Sketch.</desc>
    <defs></defs>
    <g id="Page-1" stroke="none" stroke-width="1" fill="none" fill-rule="evenodd" sketch:type="MSPage">
        <g id="officeplant" sketch:type="MSLayerGroup">
            <path d="M36.002,71.433 C34.756,66.803 34.035,69.143 34.517,71.433 L3.993,71.433 C1.568,71.433 -0.399,73.399 -0.399,75.825 L-0.399,80.659 C-0.399,83.086 1.568,85.052 3.993,85.052 L5.322,85.052 L8.826,129.421 C8.826,131.851 10.793,133.815 13.22,133.815 L54.033,133.815 C56.458,133.815 58.428,131.851 58.428,129.421 L62.433,85.044 L63.742,85.051 C66.169,85.051 68.138,83.085 68.138,80.658 L68.138,75.824 C68.135,73.399 66.166,71.433 63.744,71.433 L36.002,71.433 L36.002,71.433 Z" id="Shape" fill="#000000" sketch:type="MSShapeGroup"></path>
            <path d="M66.3834286,44.0152 C55.858,56.8517333 44.9294286,49.5602667 41.3691429,46.5756 C44.1182857,43.5268 45.3762857,41.8692 50.1508571,37.8732 C55.0857143,39.9205333 63.9111429,36.0330667 63.9111429,36.0330667 C57.9708571,37.6117333 53.4342857,36.7188 51.8217143,36.2846667 C52.1665714,36.0084 58.0242857,31.7016 59.7971429,29.2102667 C64.7028571,29.3632 68.7537143,25.086 68.7537143,25.086 C68.6177143,24.9725333 66.1405714,26.9014667 61.4485714,27.1333333 C66.3057143,19.8862667 66.0822857,13.2213333 66.0822857,13.2213333 C66.0822857,13.2213333 64.29,19.3041333 59.7291429,25.9789333 C58.7917143,21.2429333 59.9817143,18.0214667 59.8457143,17.9129333 C59.8457143,17.9129333 56.6691429,23.2310667 58.136,28.12 C55.6394286,31.0158667 51.7051429,33.5170667 50.2577143,34.6369333 C50.1508571,34.336 48.6354286,29.2842667 50.1071429,21.8201333 C50.1071429,21.8201333 46.1097143,31.2033333 48.6111429,36.0725333 C45.5462857,38.4652 44.7302857,39.0522667 39.6108571,44.8637333 C28.0217143,36.0528 37.974,20.2957333 46.6537143,16.6204 C55.5762857,12.8414667 59.2968571,13.6012 67.4762857,0 C76.4328571,13.4778667 74.966,33.5516 66.3834286,44.0152 L66.3834286,44.0152 L66.3834286,44.0152 Z M16.9231429,42.6486667 C22.1931429,45.0956 25.8505714,48.4206667 28.3617143,51.5977333 C28.3908571,51.504 28.4297143,51.43 28.4588571,51.3214667 C33.2334286,33.8772 7,36.3044 7,36.3044 C7,36.3044 10.6234286,41.9678667 12.644,48.1444 C14.9802857,55.3026667 24.5294286,61.2522667 27.9585714,52.7521333 C25.4814286,49.3678667 21.9405714,45.6629333 16.9231429,42.6486667 L16.9231429,42.6486667 L16.9231429,42.6486667 Z M41.3691429,46.5706667 C41.3351429,46.5361333 39.5574286,44.9130667 39.5817143,44.8785333 C35.084,49.9105333 33.3305714,54.2074667 32.9031429,59.6834667 C32.2231429,57.7989333 30.8631429,54.7846667 28.3568571,51.5977333 C28.2402857,52.0170667 28.0994286,52.392 27.9537143,52.7521333 C30.6202857,56.3978667 31.65,61.3657333 32.2571429,62.9937333 C32.2571429,67.5422667 32.7477143,69.8165333 33.1411429,73.6102667 C33.1411429,73.6102667 35.5502857,75.0557333 36.2205714,72.3572 C34.8702857,70.078 33.5345714,54.3604 41.3691429,46.5706667 L41.3691429,46.5706667 L41.3691429,46.5706667 Z" id="Shape" fill="#010002" sketch:type="MSShapeGroup"></path>
        </g>
    </g>
</svg>