<?xml version="1.0" encoding="iso-8859-1"?>
<!-- Generator: Adobe Illustrator 17.1.0, SVG Export Plug-In . SVG Version: 6.00 Build 0)  -->
<!DOCTYPE svg PUBLIC "-//W3C//DTD SVG 1.1//EN" "http://www.w3.org/Graphics/SVG/1.1/DTD/svg11.dtd">
<svg version="1.1" xmlns="http://www.w3.org/2000/svg" xmlns:xlink="http://www.w3.org/1999/xlink" x="0px" y="0px"
	 viewBox="0 0 64 64" style="enable-background:new 0 0 64 64;" xml:space="preserve">
<g id="imagenes">
</g>
<g id="iconos">
	<path d="M40.391,43.542l1.653-1.126l0.413-0.282l-5.913-8.677l15.288-10.419c0.689-0.47,1.084-1.04,1.174-1.696
		c0.135-0.992-0.513-1.776-0.516-1.776l-4.976-7.285c-0.024-0.057-0.606-1.377-1.971-1.377c-0.508,0-1.045,0.19-1.596,0.566
		l-1.788,1.219c0.11,0.126,0.22,0.247,0.33,0.379c0.415,0.496,0.827,1.029,1.212,1.594l0,0c0.094,0.139,0.185,0.279,0.275,0.419
		l1.247-0.85l4.505,6.61L34.441,31.26c-0.654,0.445-1.038,0.996-1.138,1.636c-0.158,1.005,0.471,1.829,0.48,1.838l6.194,9.09
		L40.391,43.542z"/>
	<path d="M13.832,35.624c-0.098-0.133-0.197-0.266-0.292-0.406c0,0,0,0,0,0c-0.392-0.576-0.726-1.16-1.012-1.731
		c-0.078-0.156-0.141-0.307-0.212-0.46l-2.663,1.815l1.689,2.479L13.832,35.624z"/>
	<path d="M41.254,46.584l8.243,12.096c0,0,1.128,1.102,2.735-0.047c1.619-1.158,0.643-2.226,0.643-2.226l-8.663-12.201l1.653-1.126
		l-0.896-1.454l-2.362,1.617l-1.653,1.126l-2.479,1.689l1.126,1.653L41.254,46.584z"/>
	<path d="M42.049,15.789C42.049,15.789,42.049,15.789,42.049,15.789c-0.385-0.565-0.804-1.095-1.224-1.587
		c-0.955-1.118-1.918-2.02-2.501-2.531L13.042,28.9c0.15,0.723,0.491,2.032,1.161,3.445c0.273,0.576,0.595,1.167,0.989,1.746l0,0
		c1.362,1.999,3.175,3.331,4.044,3.899l25.282-17.229C44.141,19.71,43.306,17.634,42.049,15.789z"/>
	<path d="M34.329,7.554l-3.953-6.156c-0.364-0.567-1.224-0.663-1.921-0.215c-0.697,0.448-0.967,1.27-0.603,1.836l0.101,0.157
		c-0.298,0.004-0.611,0.074-0.9,0.26c-0.697,0.448-0.967,1.27-0.603,1.836l0.878,1.368c-0.364-0.567-1.224-0.663-1.921-0.215
		c-0.697,0.448-0.967,1.27-0.603,1.836l-0.878-1.368c-0.364-0.567-1.224-0.663-1.921-0.215c-0.697,0.448-0.967,1.27-0.603,1.836
		l0.439,0.684c-0.364-0.567-1.224-0.663-1.921-0.215c-0.697,0.448-0.967,1.27-0.603,1.837l0.439,0.684
		c-0.364-0.567-1.224-0.663-1.921-0.215c-0.697,0.448-0.967,1.27-0.603,1.836l-0.879-1.368c-0.364-0.567-1.224-0.663-1.921-0.215
		c-0.697,0.448-0.967,1.27-0.603,1.836l0.878,1.368c-0.364-0.567-1.224-0.663-1.921-0.215c-0.309,0.198-0.528,0.471-0.651,0.762
		l-0.831-1.293c-0.364-0.567-1.224-0.663-1.921-0.215c-0.697,0.448-0.967,1.27-0.603,1.836l0.439,0.684
		c-0.364-0.567-1.224-0.663-1.921-0.215c-0.697,0.448-0.967,1.27-0.603,1.837l3.953,6.156c0.364,0.567,1.224,0.663,1.921,0.215
		c0.697-0.448,0.967-1.27,0.603-1.837l-0.439-0.684c0.364,0.567,1.224,0.663,1.921,0.215c0.309-0.198,0.528-0.471,0.651-0.762
		l0.831,1.293c0.364,0.567,1.224,0.663,1.921,0.215c0.697-0.448,0.967-1.27,0.603-1.836l-0.878-1.368
		c0.364,0.567,1.224,0.663,1.921,0.215c0.697-0.448,0.967-1.27,0.603-1.836l0.878,1.368c0.364,0.567,1.224,0.663,1.921,0.215
		c0.697-0.448,0.967-1.27,0.603-1.836l-0.439-0.684c0.364,0.567,1.224,0.663,1.921,0.215c0.697-0.448,0.967-1.27,0.603-1.837
		l-0.439-0.684c0.364,0.567,1.224,0.663,1.921,0.215c0.697-0.448,0.967-1.27,0.603-1.836l0.879,1.368
		c0.263,0.41,0.787,0.565,1.32,0.454c0.204-0.042,0.408-0.115,0.601-0.239c0.225-0.144,0.399-0.33,0.529-0.531
		c0.271-0.423,0.321-0.922,0.075-1.306l-0.878-1.368c0.364,0.567,1.224,0.663,1.921,0.215c0.697-0.448,0.967-1.27,0.603-1.836
		l-0.102-0.158c0.298-0.003,0.612-0.073,0.901-0.258c0.334-0.215,0.567-0.516,0.682-0.834C34.533,8.212,34.519,7.849,34.329,7.554z"
		/>
</g>
</svg>
