<?xml version="1.0" encoding="UTF-8" standalone="no"?>
<svg width="128px" height="128px" viewBox="0 0 128 128" version="1.1" xmlns="http://www.w3.org/2000/svg" xmlns:xlink="http://www.w3.org/1999/xlink" xmlns:sketch="http://www.bohemiancoding.com/sketch/ns">
    <!-- Generator: Sketch 3.0.4 (8054) - http://www.bohemiancoding.com/sketch -->
    <title>plant</title>
    <desc>Created with Sketch.</desc>
    <defs></defs>
    <g id="Page-1" stroke="none" stroke-width="1" fill="none" fill-rule="evenodd" sketch:type="MSPage">
        <g id="plant" sketch:type="MSArtboardGroup" fill="#000000">
            <g id="plants-studio-sleepingarea" sketch:type="MSLayerGroup" transform="translate(23.000000, 1.000000)">
                <path d="M29.8251762,85.4509604 L29.8251762,59.2863571 C29.8251762,59.2863571 13.5143619,59.2863558 8.85491378,59.2863558 C4.19546563,59.2863558 0.373697908,57.9143244 0.373697909,50.2689596 C0.37369791,36.9697085 0.373697904,26.4401871 0.373697909,23.2104025 C0.373697914,19.980618 1.84572226,12.4151945 9.80171951,12.4151943 C17.7577167,12.4151941 18.2044271,20.2925457 18.2044271,23.2104025 C18.2044271,26.1282593 18.2044271,41.8406399 18.2044271,41.8406399 L31.1242576,41.8406399 C31.1242576,41.8406399 31.1242591,13.6942537 31.1242591,12.415194 C31.1242591,11.1361343 32.0642233,-0.421833229 42.2011719,-0.289983102 C50.5200271,-0.181780706 52.9175126,8.91831901 52.9175092,12.4151943 C52.9175057,15.9120696 52.9677543,52.2424114 52.9677543,52.2424114 L63.8725107,51.9963177 C63.8725107,51.9963177 63.8725107,42.2677755 63.8725107,34.584009 C63.8725107,26.9002425 65.1360964,20.9246301 72.9142731,20.9246301 C82.3213659,20.9246301 81.7299326,35.3920432 81.7299326,35.3920432 L81.7299326,60.1048731 C81.7299326,60.1048731 81.7299326,69.6053458 73.8783509,69.6053458 C70.7191931,69.6053458 52.9175092,69.6053443 52.9175092,69.6053443 L52.9175092,85.4509586 L29.8251762,85.4509604 Z" id="Path-38" sketch:type="MSShapeGroup"></path>
                <path d="M1.48066023,90.3235693 L6.22725184,103.428294 L74.3360524,103.813893 L78.3823529,90.3235693 L1.48066023,90.3235693 Z" id="Path-38" sketch:type="MSShapeGroup"></path>
                <path d="M8.66396463,109.146497 L15.3846608,126.34171 L65.6219081,126.376194 L72.4959347,108.974074 L8.66396463,109.146497 Z" id="Path-39" sketch:type="MSShapeGroup"></path>
            </g>
        </g>
    </g>
</svg>