<?xml version="1.0" encoding="UTF-8" standalone="no"?>
<svg width="12px" height="18px" viewBox="0 0 12 18" version="1.1" xmlns="http://www.w3.org/2000/svg" xmlns:xlink="http://www.w3.org/1999/xlink" xmlns:sketch="http://www.bohemiancoding.com/sketch/ns">
    <!-- Generator: Sketch 3.1 (8751) - http://www.bohemiancoding.com/sketch -->
    <title>Shape</title>
    <desc>Created with Sketch.</desc>
    <defs></defs>
    <g id="Page-1" stroke="none" stroke-width="1" fill="none" fill-rule="evenodd" sketch:type="MSPage">
        <path d="M11.972,17.29 L0.028,17.29 L0.028,0.691 L11.972,0.691 L11.972,17.29 Z M1.434,15.22 C1.777,14.094 2.411,12.651 3.46355556,12.1913846 C3.492,12.303 3.04952572,15.7414897 7.52266667,13.2009231 C8.39411257,12.635463 10.014,11.59 10.567,13.2009231 L10.567,2.096 L1.434,2.096 L1.434,15.22 Z M5.18132094,4.8616218 C8.021,3.603 7.074,8.686 7.25986235,10.4581512 C7.416,13.44 9.543,12.143 10.3776745,11.3909061 C10.927,10.632 9.51913923,9.00595797 9.33840375,7.6598865 C8.54813065,1.77413501 4.84,3.158 5.18132094,2.996112 C0.529,4.138 2.21612086,9.85113758 4.14205024,11.3909061 C5.03529579,12.1050503 5.18132104,11.0689175 4.14205024,9.5253963 C2.083,6.199 3.567,4.701 5.18132094,4.8616218 Z" id="Shape" fill="#000000" sketch:type="MSShapeGroup"></path>
    </g>
</svg>