<?xml version="1.0" encoding="UTF-8" standalone="no"?>
<svg width="42px" height="60px" viewBox="0 0 42 60" version="1.1" xmlns="http://www.w3.org/2000/svg" xmlns:xlink="http://www.w3.org/1999/xlink" xmlns:sketch="http://www.bohemiancoding.com/sketch/ns">
    <!-- Generator: Sketch 3.1 (8751) - http://www.bohemiancoding.com/sketch -->
    <title>event</title>
    <desc>Created with Sketch.</desc>
    <defs></defs>
    <g id="Page-1" stroke="none" stroke-width="1" fill="none" fill-rule="evenodd" sketch:type="MSPage">
        <g id="event" sketch:type="MSLayerGroup" fill="#000000">
            <path d="M0.099,0.5 L0.099,59.58 L42.382,59.58 L42.382,0.5 L0.099,0.5 L0.099,0.5 Z M40.5,57.58 L1.981,57.58 L1.981,2.5 L40.5,2.5 L40.5,57.58 L40.5,57.58 Z M38.5,4.5 L3.981,4.5 L3.981,55.58 L38.5,55.58 L38.5,4.5 Z M37,30.077 L35.484,25.064 L31.988,25.005 L34.669,22.15 L32.454,19.702 L30.297,20.343 L30.705,17.37 L28.258,15.797 L25.693,18.07 L25.168,15 L20.68,15 L20.389,18.303 L18.582,15 L15.783,15.797 L16.172,19.178 L13.219,16.263 L9.372,19.178 L11.471,22.208 L7.856,22.107 L5,28.328 L9.722,29.611 L5,31.593 L6.749,38.238 L9.722,36.957 L8.236,40.162 L11.471,43.426 L14.968,41.854 L14.094,45.118 L18.524,45.761 L19.573,43.253 L20.622,45.761 L27.268,45.061 L26.51,41.564 L30.067,43.664 L33.155,40.75 L31.699,38.418 L35.546,37.834 L37,33.517 L32.92,31.477 L37,30.077 Z" id="Shape" sketch:type="MSShapeGroup"></path>
            <path d="M29.514,25.724 C29.838,27.068 29.606,29.2 29.514,30.958 C29.453,32.068 27.041,33.907 26.471,35.399 C25.459,37.109 27.442,37.109 26.393,38.974 C25.44,40.907 22.967,41.045 21.569,40.955 C20.17,41.045 17.696,40.906 16.744,38.974 C15.695,37.109 17.678,37.109 16.667,35.399 C16.096,33.907 13.684,32.068 13.624,30.958 C13.531,29.199 13.299,27.066 13.623,25.724 C12.23,25.065 12.17,22.995 12.674,22.228 C13.275,21.313 14.662,21.163 15.776,21.892 C16.399,22.301 16.794,22.901 16.923,23.509 C17.836,23.448 19.874,23.392 21.569,23.89 C23.264,23.392 25.301,23.449 26.215,23.509 C26.345,22.901 26.739,22.301 27.362,21.892 C28.475,21.163 29.862,21.313 30.464,22.228 C30.967,22.995 30.938,25.443 29.514,25.724 L29.514,25.724 Z" id="Path" sketch:type="MSShapeGroup"></path>
        </g>
    </g>
</svg>