<?xml version="1.0" encoding="UTF-8" standalone="no"?>
<svg width="9px" height="15px" viewBox="0 0 9 15" version="1.1" xmlns="http://www.w3.org/2000/svg" xmlns:xlink="http://www.w3.org/1999/xlink" xmlns:sketch="http://www.bohemiancoding.com/sketch/ns">
    <!-- Generator: Sketch 3.0.4 (8054) - http://www.bohemiancoding.com/sketch -->
    <title>Slice 2</title>
    <desc>Created with Sketch.</desc>
    <defs></defs>
    <g id="Page-1" stroke="none" stroke-width="1" fill="none" fill-rule="evenodd" sketch:type="MSPage">
        <g id="seasoningboxes" sketch:type="MSLayerGroup" fill="#010002">
            <path d="M7.871,3.935 L0.881,3.935 L0,15 L8.752,15 L7.871,3.935 L7.871,3.935 Z M4.375,0 C2.445,0 0.881,1.564 0.881,3.494 L7.871,3.494 C7.871,1.564 6.307,0 4.375,0 L4.375,0 Z M3.154,2.123 C2.898,2.123 2.689,1.917 2.689,1.66 C2.689,1.405 2.898,1.196 3.154,1.196 C3.41,1.196 3.617,1.405 3.617,1.66 C3.617,1.917 3.41,2.123 3.154,2.123 L3.154,2.123 Z M4.377,1.105 C4.119,1.105 3.912,0.897 3.912,0.64 C3.912,0.385 4.119,0.176 4.377,0.176 C4.635,0.176 4.84,0.386 4.84,0.641 C4.84,0.897 4.635,1.105 4.377,1.105 L4.377,1.105 Z M5.582,2.123 C5.324,2.123 5.119,1.917 5.119,1.66 C5.119,1.405 5.324,1.196 5.582,1.196 C5.838,1.196 6.045,1.405 6.045,1.66 C6.045,1.917 5.838,2.123 5.582,2.123 L5.582,2.123 Z" id="Shape" sketch:type="MSShapeGroup"></path>
        </g>
    </g>
</svg>