<?xml version="1.0" encoding="UTF-8" standalone="no"?>
<svg width="50px" height="50px" viewBox="0 0 50 50" version="1.1" xmlns="http://www.w3.org/2000/svg" xmlns:xlink="http://www.w3.org/1999/xlink" xmlns:sketch="http://www.bohemiancoding.com/sketch/ns">
    <!-- Generator: Sketch 3.0.4 (8054) - http://www.bohemiancoding.com/sketch -->
    <title>Artboard 1</title>
    <desc>Created with Sketch.</desc>
    <defs></defs>
    <g id="Page-1" stroke="none" stroke-width="1" fill="none" fill-rule="evenodd" sketch:type="MSPage">
        <g id="Artboard-1" sketch:type="MSArtboardGroup" fill="#000000">
            <g id="kitchen61" sketch:type="MSLayerGroup" transform="translate(3.000000, 0.000000)">
                <g id="Group" sketch:type="MSShapeGroup">
                    <path d="M26.00664,13.1578947 L26.15448,14.9122807 L29.28464,14.9122807 L29.43248,13.1578947 L26.00664,13.1578947 Z" id="Shape"></path>
                    <path d="M13.68664,13.1578947 L13.83448,14.9122807 L16.96464,14.9122807 L17.11248,13.1578947 L13.68664,13.1578947 Z" id="Shape"></path>
                    <path d="M13.83448,37.7192982 L16.96464,37.7192982 L17.11248,35.9649123 L13.68664,35.9649123 L13.83448,37.7192982 Z" id="Shape"></path>
                    <path d="M26.15448,37.7192982 L29.28464,37.7192982 L29.43248,35.9649123 L26.00664,35.9649123 L26.15448,37.7192982 Z" id="Shape"></path>
                    <path d="M6.16,47.3684211 L12.32,47.3684211 C13.0636,47.3684211 13.64,46.5429825 13.64,45.8333333 L12.9536,37.7192982 L12.80488,35.9649123 L12.76176,35.4535088 C12.76,34.7175439 12.20472,34.2105263 11.44,34.2105263 L7.04,34.2105263 C6.27528,34.2105263 5.72,34.7175439 5.72,35.4166667 L5.67336,35.9649123 L5.52552,37.7192982 L4.83824,45.8701754 C4.84,46.5429825 5.4164,47.3684211 6.16,47.3684211 L6.16,47.3684211 Z" id="Shape"></path>
                    <path d="M7.04,33.3333333 L11.44,33.3333333 C12.4124,33.3333333 13.2,32.5482456 13.2,31.5789474 L13.2,29.8245614 C13.2,28.8552632 12.4124,28.0701754 11.44,28.0701754 L7.04,28.0701754 C6.0676,28.0701754 5.28,28.8552632 5.28,29.8245614 L5.28,31.5789474 C5.28,32.5482456 6.0676,33.3333333 7.04,33.3333333 L7.04,33.3333333 Z" id="Shape"></path>
                    <path d="M18.48,47.3684211 L24.64,47.3684211 C25.3836,47.3684211 25.96,46.5429825 25.96,45.8333333 L25.2736,37.7192982 L25.12488,35.9649123 L25.08176,35.4535088 C25.08,34.7175439 24.52472,34.2105263 23.76,34.2105263 L19.36,34.2105263 C18.59528,34.2105263 18.04,34.7175439 18.04,35.4166667 L17.99336,35.9649123 L17.84552,37.7192982 L17.15824,45.8701754 C17.16,46.5429825 17.7364,47.3684211 18.48,47.3684211 L18.48,47.3684211 Z" id="Shape"></path>
                    <path d="M19.36,33.3333333 L23.76,33.3333333 C24.7324,33.3333333 25.52,32.5482456 25.52,31.5789474 L25.52,29.8245614 C25.52,28.8552632 24.7324,28.0701754 23.76,28.0701754 L19.36,28.0701754 C18.3876,28.0701754 17.6,28.8552632 17.6,29.8245614 L17.6,31.5789474 C17.6,32.5482456 18.3876,33.3333333 19.36,33.3333333 L19.36,33.3333333 Z" id="Shape"></path>
                    <path d="M30.8,47.3684211 L36.96,47.3684211 C37.7036,47.3684211 38.28,46.5429825 38.28,45.8333333 L37.5936,37.7192982 L37.44488,35.9649123 L37.40176,35.4535088 C37.4,34.7175439 36.84472,34.2105263 36.08,34.2105263 L31.68,34.2105263 C30.91528,34.2105263 30.36,34.7175439 30.36,35.4166667 L30.31336,35.9649123 L30.16552,37.7192982 L29.47824,45.8701754 C29.48,46.5429825 30.0564,47.3684211 30.8,47.3684211 L30.8,47.3684211 Z" id="Shape"></path>
                    <path d="M31.68,33.3333333 L36.08,33.3333333 C37.0524,33.3333333 37.84,32.5482456 37.84,31.5789474 L37.84,29.8245614 C37.84,28.8552632 37.0524,28.0701754 36.08,28.0701754 L31.68,28.0701754 C30.7076,28.0701754 29.92,28.8552632 29.92,29.8245614 L29.92,31.5789474 C29.92,32.5482456 30.7076,33.3333333 31.68,33.3333333 L31.68,33.3333333 Z" id="Shape"></path>
                    <path d="M12.9536,14.9122807 L12.80488,13.1578947 L12.76176,12.6464912 C12.76,11.9105263 12.20472,11.4035088 11.44,11.4035088 L7.04,11.4035088 C6.27528,11.4035088 5.72,11.9105263 5.72,12.6096491 L5.67336,13.1578947 L5.52552,14.9122807 L4.83824,23.0631579 C4.84,23.7359649 5.4164,24.5614035 6.16,24.5614035 L12.32,24.5614035 C13.0636,24.5614035 13.64,23.7359649 13.64,23.0263158 L12.9536,14.9122807 L12.9536,14.9122807 Z" id="Shape"></path>
                    <path d="M7.04,10.5263158 L11.44,10.5263158 C12.4124,10.5263158 13.2,9.74122807 13.2,8.77192982 L13.2,7.01754386 C13.2,6.04824561 12.4124,5.26315789 11.44,5.26315789 L7.04,5.26315789 C6.0676,5.26315789 5.28,6.04824561 5.28,7.01754386 L5.28,8.77192982 C5.28,9.74122807 6.0676,10.5263158 7.04,10.5263158 L7.04,10.5263158 Z" id="Shape"></path>
                    <path d="M25.2736,14.9122807 L25.12488,13.1578947 L25.08176,12.6464912 C25.08,11.9105263 24.52472,11.4035088 23.76,11.4035088 L19.36,11.4035088 C18.59528,11.4035088 18.04,11.9105263 18.04,12.6096491 L17.99336,13.1578947 L17.84552,14.9122807 L17.15824,23.0631579 C17.16,23.7359649 17.7364,24.5614035 18.48,24.5614035 L24.64,24.5614035 C25.3836,24.5614035 25.96,23.7359649 25.96,23.0263158 L25.2736,14.9122807 L25.2736,14.9122807 Z" id="Shape"></path>
                    <path d="M19.36,10.5263158 L23.76,10.5263158 C24.7324,10.5263158 25.52,9.74122807 25.52,8.77192982 L25.52,7.01754386 C25.52,6.04824561 24.7324,5.26315789 23.76,5.26315789 L19.36,5.26315789 C18.3876,5.26315789 17.6,6.04824561 17.6,7.01754386 L17.6,8.77192982 C17.6,9.74122807 18.3876,10.5263158 19.36,10.5263158 L19.36,10.5263158 Z" id="Shape"></path>
                    <path d="M37.5936,14.9122807 L37.44488,13.1578947 L37.40176,12.6464912 C37.4,11.9105263 36.84472,11.4035088 36.08,11.4035088 L31.68,11.4035088 C30.91528,11.4035088 30.36,11.9105263 30.36,12.6096491 L30.31336,13.1578947 L30.16552,14.9122807 L29.47824,23.0631579 C29.48,23.7359649 30.0564,24.5614035 30.8,24.5614035 L36.96,24.5614035 C37.7036,24.5614035 38.28,23.7359649 38.28,23.0263158 L37.5936,14.9122807 L37.5936,14.9122807 Z" id="Shape"></path>
                    <path d="M31.68,10.5263158 L36.08,10.5263158 C37.0524,10.5263158 37.84,9.74122807 37.84,8.77192982 L37.84,7.01754386 C37.84,6.04824561 37.0524,5.26315789 36.08,5.26315789 L31.68,5.26315789 C30.7076,5.26315789 29.92,6.04824561 29.92,7.01754386 L29.92,8.77192982 C29.92,9.74122807 30.7076,10.5263158 31.68,10.5263158 L31.68,10.5263158 Z" id="Shape"></path>
                    <path d="M1.76,37.7192982 L4.64464,37.7192982 L4.79248,35.9649123 L1.76,35.9649123 L1.76,14.9122807 L4.64464,14.9122807 L4.79248,13.1578947 L1.76,13.1578947 L1.76,1.75438596 L42.24,1.75438596 L42.24,13.1578947 L38.32664,13.1578947 L38.47448,14.9122807 L42.24,14.9122807 L42.24,35.9649123 L38.32664,35.9649123 L38.47448,37.7192982 L42.24,37.7192982 L42.24,50 L44,50 L44,37.7192982 L44,35.9649123 L44,14.9122807 L44,13.1578947 L44,1.75438596 L44,0 L42.24,0 L1.76,0 L0,0 L0,1.75438596 L0,13.1578947 L0,14.9122807 L0,35.9649123 L0,37.7192982 L0,50 L1.76,50 L1.76,37.7192982 Z" id="Shape"></path>
                </g>
            </g>
        </g>
    </g>
</svg>