<?xml version="1.0" encoding="UTF-8" standalone="no"?>
<svg width="122px" height="106px" viewBox="0 0 122 106" version="1.1" xmlns="http://www.w3.org/2000/svg" xmlns:xlink="http://www.w3.org/1999/xlink" xmlns:sketch="http://www.bohemiancoding.com/sketch/ns">
    <!-- Generator: Sketch 3.0.4 (8054) - http://www.bohemiancoding.com/sketch -->
    <title>Slice 2</title>
    <desc>Created with Sketch.</desc>
    <defs></defs>
    <g id="Page-1" stroke="none" stroke-width="1" fill="none" fill-rule="evenodd" sketch:type="MSPage">
        <g id="sewingmachine" sketch:type="MSLayerGroup" transform="translate(3.000000, 11.000000)" fill="#000000">
            <g id="Page-1" sketch:type="MSShapeGroup">
                <g id="sewingmachine">
                    <g id="Page-1">
                        <g id="sewingmachine">
                            <g id="sewing-machine-studio-dinningarea">
                                <path d="M19,43.9202426 C12.3552068,43.9202425 5.86244334,43.9202426 4.1067044,43.9202431 C0.178305731,43.9202445 0,39.135421 0,39.135421 C0,39.135421 0.172632262,17.0966547 0.172632338,12.004012 C0.172632414,6.91136932 4.62611156,6.43448091 4.62611156,6.43448091 L13.0357674,6.49160145 L13.0357674,3.10289072 C13.0357674,0.0222824115 16.1844839,0.514777759 16.1844839,0.514777759 L27.3755979,0.514777759 C29.6060496,0.514777759 29.6060493,3.10289081 29.6060493,3.10289081 L29.6060496,6.43448091 L84.288345,6.43448097 L84.288345,2.39532666 C84.2883451,-0.396334852 87.0622143,0.0222824205 87.0622143,0.0222824205 C87.0622143,0.0222824205 97.1060932,0.0222823435 99.5650909,0.0222824205 C102.024089,0.0222824985 101.859606,2.39532659 101.859606,2.39532659 L101.859606,6.93500696 L112.496307,6.93500696 C116.064042,6.93500696 115.588729,10.9839896 115.588729,10.9839896 L115.588729,16.2016931 C115.588729,16.2016931 116.742819,16.2016928 118.994334,16.2016933 C121.245848,16.2016939 122.160476,18.9375952 122.160476,18.9375952 C122.160476,18.9375952 122.160475,44.4920216 122.160476,47.2739035 C122.160476,50.0557854 119.598142,51.0311335 119.598142,51.0311335 L115.306242,51.0311341 C115.306242,51.0311341 115.338207,54.9799371 115.374847,60.6937357 C115.46696,75.0582368 115.588623,100.577873 115.306242,102.554102 C114.911538,105.316418 110.127421,105.564382 110.127421,105.564382 C110.127421,105.564382 9.31485169,105.564386 4.62611163,105.564382 C-0.06262842,105.564379 0.172632335,101.085609 0.172632335,101.085609 C0.172632335,101.085609 0.172632338,86.0209463 0.172632335,81.5461351 C0.172632331,77.071324 4.80735863,77.5023573 4.80735863,77.5023573 L70.3131513,77.5023573 L70.3131513,29.8482159 L40.4162282,29.8482159 L40.4162282,40.5490571 C40.4162282,43.9202429 35.6781595,43.9202431 35.6781595,43.9202431 C35.6781595,43.9202431 30.3276319,43.9202429 24,43.9202427 L24,55 L19,55 L19,43.9202426 Z M93.15139,46.9252619 C97.5972823,46.9252619 101.201391,43.3006841 101.201391,38.8295408 C101.201391,34.3583975 97.5972823,30.7338197 93.15139,30.7338197 C88.7054976,30.7338197 85.1013898,34.3583975 85.1013898,38.8295408 C85.1013898,43.3006841 88.7054976,46.9252619 93.15139,46.9252619 Z M93.15139,68.6260493 C97.5972823,68.6260493 101.201391,65.0014715 101.201391,60.5303282 C101.201391,56.0591849 97.5972823,52.4346071 93.15139,52.4346071 C88.7054976,52.4346071 85.1013898,56.0591849 85.1013898,60.5303282 C85.1013898,65.0014715 88.7054976,68.6260493 93.15139,68.6260493 Z" id="Path-19"></path>
                            </g>
                        </g>
                    </g>
                </g>
            </g>
        </g>
    </g>
</svg>