<?xml version="1.0" encoding="UTF-8" standalone="no"?>
<svg width="50px" height="50px" viewBox="0 0 50 50" version="1.1" xmlns="http://www.w3.org/2000/svg" xmlns:xlink="http://www.w3.org/1999/xlink" xmlns:sketch="http://www.bohemiancoding.com/sketch/ns">
    <!-- Generator: Sketch 3.0.4 (8054) - http://www.bohemiancoding.com/sketch -->
    <title>Artboard 1</title>
    <desc>Created with Sketch.</desc>
    <defs></defs>
    <g id="Page-1" stroke="none" stroke-width="1" fill="none" fill-rule="evenodd" sketch:type="MSPage">
        <g id="Artboard-1" sketch:type="MSArtboardGroup" fill="#000000">
            <g id="sewingmachine" sketch:type="MSLayerGroup" transform="translate(0.000000, 4.000000)">
                <g id="Page-1" sketch:type="MSShapeGroup">
                    <g id="sewingmachine">
                        <g id="Page-1">
                            <g id="sewingmachine">
                                <g id="Page-1">
                                    <g id="sewingmachine">
                                        <g id="sewing-machine-studio-dinningarea">
                                            <path d="M7.77665601,17.8902236 C5.05695754,17.8902236 2.39948449,17.8902236 1.6808646,17.8902238 C0.0729801229,17.8902244 0,15.9412014 0,15.9412014 C0,15.9412014 0.0706579852,6.96405479 0.0706580163,4.88964647 C0.0706580474,2.81523815 1.89345675,2.62098512 1.89345675,2.62098512 L5.33550942,2.64425228 L5.33550942,1.26391398 C5.33550942,0.00907639166 6.62427179,0.209686666 6.62427179,0.209686666 L11.2047688,0.209686666 C12.1176876,0.209686666 12.1176874,1.26391402 12.1176874,1.26391402 L12.1176876,2.62098512 L34.4990245,2.62098514 L34.4990245,0.975698836 C34.4990245,-0.161440801 35.6343627,0.00907639533 35.6343627,0.00907639533 C35.6343627,0.00907639533 39.7452991,0.00907636396 40.7517612,0.00907639533 C41.7582234,0.0090764271 41.6909009,0.975698808 41.6909009,0.975698808 L41.6909009,2.82486658 L46.044478,2.82486658 C47.5047437,2.82486658 47.3101992,4.4741563 47.3101992,4.4741563 L47.3101992,6.59950618 C47.3101992,6.59950618 47.7825655,6.59950606 48.7041054,6.59950626 C49.6256449,6.59950651 50,7.71393309 50,7.71393309 C50,7.71393309 49.9999996,18.1231288 50,19.2562849 C50,20.389441 48.9512426,20.7867338 48.9512426,20.7867338 L47.1945779,20.786734 C47.1945779,20.786734 47.2076611,22.3952171 47.2226578,24.7226436 C47.2603594,30.5737983 47.3101558,40.9688229 47.1945779,41.7738088 C47.0330265,42.898995 45.0748984,42.9999993 45.0748984,42.9999993 C45.0748984,42.9999993 3.81254723,43.0000009 1.89345678,42.9999993 C-0.0256336673,42.9999981 0.070658015,41.1756412 0.070658015,41.1756412 C0.070658015,41.1756412 0.0706580163,35.0392865 0.070658015,33.2165422 C0.0706580134,31.3937979 1.96764076,31.5693726 1.96764076,31.5693726 L28.77901,31.5693726 L28.77901,12.1582037 L16.5422686,12.1582037 L16.5422686,16.517024 C16.5422686,17.8902237 14.6029881,17.8902238 14.6029881,17.8902238 C14.6029881,17.8902238 12.4130295,17.8902237 9.82314444,17.8902237 L9.82314444,22.4033894 L7.77665601,22.4033894 L7.77665601,17.8902236 L7.77665601,17.8902236 Z M38.4999998,19 C40.4329963,19 42,17.4329966 42,15.5 C42,13.5670034 40.4329963,12 38.4999998,12 C36.5670033,12 35,13.5670034 35,15.5 C35,17.4329966 36.5670033,19 38.4999998,19 L38.4999998,19 Z M38.4999998,28 C40.4329963,28 42,26.4329966 42,24.5 C42,22.5670034 40.4329963,21 38.4999998,21 C36.5670033,21 35,22.5670034 35,24.5 C35,26.4329966 36.5670033,28 38.4999998,28 L38.4999998,28 Z" id="Path-19"></path>
                                        </g>
                                    </g>
                                </g>
                            </g>
                        </g>
                    </g>
                </g>
            </g>
        </g>
    </g>
</svg>