<?xml version="1.0" encoding="UTF-8" standalone="no"?>
<svg width="30px" height="30px" viewBox="0 0 30 30" version="1.1" xmlns="http://www.w3.org/2000/svg" xmlns:xlink="http://www.w3.org/1999/xlink" xmlns:sketch="http://www.bohemiancoding.com/sketch/ns">
    <!-- Generator: Sketch 3.0.4 (8054) - http://www.bohemiancoding.com/sketch -->
    <title>Artboard 1</title>
    <desc>Created with Sketch.</desc>
    <defs></defs>
    <g id="Page-1" stroke="none" stroke-width="1" fill="none" fill-rule="evenodd" sketch:type="MSPage">
        <g id="Artboard-1" sketch:type="MSArtboardGroup" fill="#000000">
            <g id="share" sketch:type="MSLayerGroup">
                <path d="M24.2427273,19.0418182 C22.5081818,19.0418182 20.9781818,19.8681818 19.9786364,21.1336364 L10.7072727,16.3922727 C10.8286364,15.9395455 10.9159091,15.4718182 10.9159091,14.9795455 C10.9159091,14.4436364 10.8122727,13.9390909 10.6677273,13.4481818 L19.8981818,8.72863636 C20.8922727,10.0513636 22.4618182,10.9159091 24.2440909,10.9159091 C27.2631818,10.9159091 29.7054545,8.47363636 29.7054545,5.45727273 C29.7054545,2.44363636 27.2631818,3.55271368e-15 24.2440909,3.55271368e-15 C21.2318182,3.55271368e-15 18.7868182,2.44363636 18.7868182,5.45727273 C18.7868182,5.95090909 18.8740909,6.42 18.9968182,6.87409091 L9.72818182,11.6154545 C8.72727273,10.3486364 7.19454545,9.51954545 5.45727273,9.51954545 C2.44090909,9.51954545 0,11.9645455 0,14.9795455 C0,17.9945455 2.44090909,20.4381818 5.45727273,20.4381818 C7.24227273,20.4381818 8.81045455,19.5709091 9.80863636,18.2468182 L19.035,22.9663636 C18.8904545,23.4559091 18.7854545,23.9645455 18.7854545,24.5018182 C18.7854545,27.5168182 21.2304545,29.9604545 24.2427273,29.9604545 C27.2618182,29.9604545 29.7040909,27.5168182 29.7040909,24.5018182 C29.7040909,21.4840909 27.2618182,19.0418182 24.2427273,19.0418182 L24.2427273,19.0418182 Z" id="Shape" sketch:type="MSShapeGroup"></path>
            </g>
        </g>
    </g>
</svg>