<?xml version="1.0" encoding="UTF-8" standalone="no"?>
<svg width="27px" height="25px" viewBox="0 0 27 25" version="1.1" xmlns="http://www.w3.org/2000/svg" xmlns:xlink="http://www.w3.org/1999/xlink" xmlns:sketch="http://www.bohemiancoding.com/sketch/ns">
    <!-- Generator: Sketch 3.0.4 (8054) - http://www.bohemiancoding.com/sketch -->
    <title>Slice 2</title>
    <desc>Created with Sketch.</desc>
    <defs></defs>
    <g id="Page-1" stroke="none" stroke-width="1" fill="none" fill-rule="evenodd" sketch:type="MSPage">
        <g id="sound-off" sketch:type="MSLayerGroup" fill="#000000">
            <g id="c74_volume" sketch:type="MSShapeGroup">
                <path d="M4.637,7.1509007 L0,7.1509007 L0,17.4809007 L4.637,17.4809007 L13.403,23.9829007 C13.403,23.9829007 15.014,25.3289007 15.014,23.9379007 L15.014,0.491900698 C15.014,-0.600099302 13.596,0.466900698 13.596,0.466900698 L4.637,7.1509007 L4.637,7.1509007 Z M23.0508333,12.6125 L25.9275,9.73583333 C26.3258333,9.33916667 26.3258333,8.69416667 25.9275,8.2975 C25.5308333,7.90083333 24.8858333,7.90083333 24.4891667,8.2975 L21.6125,11.1758333 L18.7341667,8.2975 C18.3391667,7.90083333 17.6925,7.90083333 17.2975,8.2975 C16.9008333,8.69416667 16.9008333,9.33916667 17.2975,9.73583333 L20.1741667,12.6125 L17.2975,15.4908333 C16.9008333,15.8858333 16.9008333,16.5325 17.2975,16.9275 C17.6925,17.3241667 18.3391667,17.3241667 18.7341667,16.9275 L21.6125,14.0508333 L24.4891667,16.9275 C24.8858333,17.3241667 25.5308333,17.3241667 25.9275,16.9275 C26.3241667,16.5325 26.3241667,15.8858333 25.9275,15.4908333 L23.0508333,12.6125 L23.0508333,12.6125 Z" id="Shape"></path>
            </g>
        </g>
    </g>
</svg>