<?xml version="1.0" encoding="UTF-8" standalone="no"?>
<svg width="744px" height="1033px" viewBox="0 0 744 1033" version="1.1" xmlns="http://www.w3.org/2000/svg" xmlns:xlink="http://www.w3.org/1999/xlink" xmlns:sketch="http://www.bohemiancoding.com/sketch/ns">
    <!-- Generator: Sketch 3.1 (8751) - http://www.bohemiancoding.com/sketch -->
    <title>water</title>
    <desc>Created with Sketch.</desc>
    <defs></defs>
    <g id="Page-1" stroke="none" stroke-width="1" fill="none" fill-rule="evenodd" sketch:type="MSPage">
        <g id="water" sketch:type="MSLayerGroup" fill="#000000">
            <path d="M411,994 C411.209117,1014.8483 394.148881,1032.34652 373,1033 C352.084554,1033.60892 334.314941,1016.31524 334,995 C333.693503,973.890528 350.571997,956.421536 372,956 C392.507346,955.609152 410.787008,973.282714 411,994 L411,994 L411,994 Z" id="Shape" sketch:type="MSShapeGroup"></path>
            <path d="M372,848 C390.605526,847.889345 406.94091,864.081428 407,883 C407.058771,900.856071 390.776423,917.551598 373,918 C354.20449,918.447263 337.244447,902.108826 337,883 C336.755329,864.444369 352.74892,848.111794 372,848 L372,848 L372,848 Z" id="Shape" sketch:type="MSShapeGroup"></path>
            <path d="M404,778 C403.799151,794.851749 389.534058,808.959005 373,809 C355.545619,809.04082 340.982483,794.734871 341,778 C341.017547,760.799148 356.141701,745.786082 373,746 C389.814567,746.224377 404.202384,761.138096 404,778 L404,778 L404,778 Z" id="Shape" sketch:type="MSShapeGroup"></path>
            <path d="M372,706 C356.081837,705.697699 342.80751,692.497681 343,677 C343.202614,661.808368 357.337915,648.468481 373,649 C388.445014,649.546629 401.318341,663.096316 401,678 C400.669662,693.511722 387.129966,706.292137 372,706 L372,706 L372,706 Z" id="Shape" sketch:type="MSShapeGroup"></path>
            <path d="M373,610 C359.152539,610.366129 346.739529,598.502194 346,585 C345.335711,571.149559 357.218649,558.477518 371,558 C385.230925,557.540583 397.306087,568.44416 398,582 C398.66913,596.938685 387.007541,609.593158 373,610 L373,610 L373,610 Z" id="Shape" sketch:type="MSShapeGroup"></path>
            <path d="M0,512 C0,385.969231 102.116191,283.866473 228,284 L292,284 L292,0 L452,0 L452,284 L516,284 C641.883809,283.792163 744,385.89492 744,512 L0,512 Z" id="Path" sketch:type="MSShapeGroup"></path>
        </g>
    </g>
</svg>