<?xml version="1.0" encoding="UTF-8" standalone="no"?>
<svg width="130px" height="99px" viewBox="0 0 130 99" version="1.1" xmlns="http://www.w3.org/2000/svg" xmlns:xlink="http://www.w3.org/1999/xlink" xmlns:sketch="http://www.bohemiancoding.com/sketch/ns">
    <!-- Generator: Sketch 3.1 (8751) - http://www.bohemiancoding.com/sketch -->
    <title>window</title>
    <desc>Created with Sketch.</desc>
    <defs></defs>
    <g id="Page-1" stroke="none" stroke-width="1" fill="none" fill-rule="evenodd" sketch:type="MSPage">
        <g id="window" sketch:type="MSLayerGroup" transform="translate(1.000000, 1.000000)" fill="#000000">
            <g id="Page-1" sketch:type="MSShapeGroup">
                <g id="window">
                    <g id="windows-studio-sleepingarea">
                        <path d="M0,0 L0,97 L128,97 L128,0 L0,0 L0,0 Z M10.70209,11.831881 L10.70209,84.831881 L59.70209,84.831881 L59.70209,11.831881 L10.70209,11.831881 L10.70209,11.831881 Z M68.009226,11.831881 L68.009226,84.831881 L117.009226,84.831881 L117.009226,11.831881 L68.009226,11.831881 L68.009226,11.831881 Z" id="Rectangle-18" stroke="#121212"></path>
                        <path d="M80.1228629,56.1826303 L80.8955891,56.8173697 L103.895589,28.8173697 L103.122863,28.1826303 L80.1228629,56.1826303 Z" id="Line-4"></path>
                        <path d="M81.1182499,70.1826303 L81.8909761,70.8173697 L104.890976,42.8173697 L104.11825,42.1826303 L81.1182499,70.1826303 Z" id="Line-5"></path>
                        <path d="M22.1228629,56.1826303 L22.8955891,56.8173697 L45.8955891,28.8173697 L45.1228629,28.1826303 L22.1228629,56.1826303 Z" id="Line-7"></path>
                        <path d="M23.1182499,70.1826303 L23.8909761,70.8173697 L46.8909761,42.8173697 L46.1182499,42.1826303 L23.1182499,70.1826303 Z" id="Line-6"></path>
                    </g>
                </g>
            </g>
        </g>
    </g>
</svg>